G04*
G04 #@! TF.GenerationSoftware,Altium Limited,Altium Designer,21.5.1 (32)*
G04*
G04 Layer_Color=8421504*
%FSLAX25Y25*%
%MOIN*%
G70*
G04*
G04 #@! TF.SameCoordinates,8A425D5F-BF34-4987-8E10-FF1777C96443*
G04*
G04*
G04 #@! TF.FilePolarity,Positive*
G04*
G01*
G75*
%ADD16C,0.01000*%
G04:AMPARAMS|DCode=17|XSize=25.59mil|YSize=64.96mil|CornerRadius=1.92mil|HoleSize=0mil|Usage=FLASHONLY|Rotation=90.000|XOffset=0mil|YOffset=0mil|HoleType=Round|Shape=RoundedRectangle|*
%AMROUNDEDRECTD17*
21,1,0.02559,0.06112,0,0,90.0*
21,1,0.02175,0.06496,0,0,90.0*
1,1,0.00384,0.03056,0.01088*
1,1,0.00384,0.03056,-0.01088*
1,1,0.00384,-0.03056,-0.01088*
1,1,0.00384,-0.03056,0.01088*
%
%ADD17ROUNDEDRECTD17*%
%ADD18R,0.05709X0.04724*%
%ADD19R,0.03937X0.03543*%
%ADD20R,0.04724X0.05709*%
%ADD21R,0.03937X0.03937*%
%ADD22C,0.03937*%
%ADD23R,0.07087X0.04528*%
%ADD24R,0.04528X0.07087*%
%ADD25R,0.05118X0.06102*%
%ADD26R,0.05315X0.07480*%
%ADD27R,0.07480X0.05315*%
%ADD28R,0.06102X0.05118*%
%ADD29R,0.03543X0.03937*%
D16*
X0Y-107106D02*
Y0D01*
X248500D01*
Y-107106D02*
Y0D01*
X0Y-107106D02*
X248500D01*
D17*
X29378Y-69000D02*
D03*
Y-74000D02*
D03*
Y-79000D02*
D03*
Y-84000D02*
D03*
X51622Y-69000D02*
D03*
Y-74000D02*
D03*
Y-79000D02*
D03*
Y-84000D02*
D03*
X217878Y-53500D02*
D03*
Y-58500D02*
D03*
Y-63500D02*
D03*
Y-68500D02*
D03*
X240122Y-53500D02*
D03*
Y-58500D02*
D03*
Y-63500D02*
D03*
Y-68500D02*
D03*
X162378Y-48500D02*
D03*
Y-53500D02*
D03*
Y-58500D02*
D03*
Y-63500D02*
D03*
X184622Y-48500D02*
D03*
Y-53500D02*
D03*
Y-58500D02*
D03*
Y-63500D02*
D03*
X110244Y-64500D02*
D03*
Y-59500D02*
D03*
Y-54500D02*
D03*
Y-49500D02*
D03*
X88000Y-64500D02*
D03*
Y-59500D02*
D03*
Y-54500D02*
D03*
Y-49500D02*
D03*
X125000Y-100500D02*
D03*
Y-95500D02*
D03*
Y-90500D02*
D03*
Y-85500D02*
D03*
X102756Y-100500D02*
D03*
Y-95500D02*
D03*
Y-90500D02*
D03*
Y-85500D02*
D03*
X54122Y-32500D02*
D03*
Y-27500D02*
D03*
Y-22500D02*
D03*
Y-17500D02*
D03*
X31878Y-32500D02*
D03*
Y-27500D02*
D03*
Y-22500D02*
D03*
Y-17500D02*
D03*
D18*
X228000Y-83063D02*
D03*
Y-90937D02*
D03*
X140000Y-66563D02*
D03*
Y-74437D02*
D03*
X17500Y-88437D02*
D03*
Y-80563D02*
D03*
X89500Y-83000D02*
D03*
Y-75126D02*
D03*
X75500Y-58626D02*
D03*
Y-66500D02*
D03*
X61500Y-88937D02*
D03*
Y-81063D02*
D03*
D19*
X213000Y-73756D02*
D03*
Y-80055D02*
D03*
X160000Y-66201D02*
D03*
Y-72500D02*
D03*
D20*
X196063Y-58201D02*
D03*
X203937D02*
D03*
X189563Y-34500D02*
D03*
X197437D02*
D03*
X207126Y-41500D02*
D03*
X215000D02*
D03*
X149874Y-58000D02*
D03*
X142000D02*
D03*
X24063Y-53000D02*
D03*
X31937D02*
D03*
X23437Y-8500D02*
D03*
X15563D02*
D03*
X115437Y-75126D02*
D03*
X107563D02*
D03*
X73437Y-39000D02*
D03*
X65563D02*
D03*
D21*
X123500Y-64500D02*
D03*
X129000D02*
D03*
Y-75126D02*
D03*
X123500D02*
D03*
D22*
X121500Y-64500D02*
D03*
X131000D02*
D03*
Y-75126D02*
D03*
X121500D02*
D03*
D23*
X149500Y-65095D02*
D03*
Y-76906D02*
D03*
D24*
X151906Y-48000D02*
D03*
X140094D02*
D03*
X149094Y-9000D02*
D03*
X160906D02*
D03*
X97594Y-8500D02*
D03*
X109406D02*
D03*
D25*
X150000Y-15500D02*
D03*
X157874D02*
D03*
D26*
X75799Y-48000D02*
D03*
X63201D02*
D03*
D27*
X64000Y-57701D02*
D03*
Y-70299D02*
D03*
D28*
X64500Y-19937D02*
D03*
Y-12063D02*
D03*
D29*
X108150Y-14500D02*
D03*
X101850D02*
D03*
M02*
