G04*
G04 #@! TF.GenerationSoftware,Altium Limited,Altium Designer,21.5.1 (32)*
G04*
G04 Layer_Physical_Order=2*
G04 Layer_Color=16711680*
%FSLAX25Y25*%
%MOIN*%
G70*
G04*
G04 #@! TF.SameCoordinates,8A425D5F-BF34-4987-8E10-FF1777C96443*
G04*
G04*
G04 #@! TF.FilePolarity,Positive*
G04*
G01*
G75*
%ADD16C,0.01000*%
%ADD19R,0.03937X0.03543*%
%ADD25R,0.05118X0.06102*%
%ADD48C,0.01400*%
%ADD49C,0.06299*%
%ADD50R,0.06299X0.06299*%
%ADD51R,0.06299X0.06299*%
%ADD52C,0.13000*%
%ADD53C,0.03150*%
G36*
X248500Y-107106D02*
X0D01*
Y0D01*
X248500D01*
Y-107106D01*
D02*
G37*
%LPC*%
G36*
X164500Y-1969D02*
Y-4000D01*
X166531D01*
X166508Y-3828D01*
X166249Y-3201D01*
X165836Y-2664D01*
X165298Y-2251D01*
X164672Y-1991D01*
X164500Y-1969D01*
D02*
G37*
G36*
X163500D02*
X163328Y-1991D01*
X162701Y-2251D01*
X162164Y-2664D01*
X161751Y-3201D01*
X161492Y-3828D01*
X161469Y-4000D01*
X163500D01*
Y-1969D01*
D02*
G37*
G36*
X166531Y-5000D02*
X164500D01*
Y-7031D01*
X164672Y-7008D01*
X165298Y-6749D01*
X165836Y-6336D01*
X166249Y-5799D01*
X166508Y-5172D01*
X166531Y-5000D01*
D02*
G37*
G36*
X163500D02*
X161469D01*
X161492Y-5172D01*
X161751Y-5799D01*
X162164Y-6336D01*
X162701Y-6749D01*
X163328Y-7008D01*
X163500Y-7031D01*
Y-5000D01*
D02*
G37*
G36*
X94500Y-6469D02*
Y-8500D01*
X96531D01*
X96509Y-8328D01*
X96249Y-7701D01*
X95836Y-7164D01*
X95298Y-6751D01*
X94672Y-6492D01*
X94500Y-6469D01*
D02*
G37*
G36*
X93500D02*
X93328Y-6492D01*
X92702Y-6751D01*
X92164Y-7164D01*
X91751Y-7701D01*
X91492Y-8328D01*
X91469Y-8500D01*
X93500D01*
Y-6469D01*
D02*
G37*
G36*
X65000D02*
Y-8500D01*
X67031D01*
X67009Y-8328D01*
X66749Y-7701D01*
X66336Y-7164D01*
X65798Y-6751D01*
X65172Y-6492D01*
X65000Y-6469D01*
D02*
G37*
G36*
X64000D02*
X63828Y-6492D01*
X63201Y-6751D01*
X62664Y-7164D01*
X62251Y-7701D01*
X61992Y-8328D01*
X61969Y-8500D01*
X64000D01*
Y-6469D01*
D02*
G37*
G36*
X27500Y-6079D02*
X26573Y-6263D01*
X25788Y-6788D01*
X25263Y-7573D01*
X25079Y-8500D01*
X25122Y-8716D01*
X23419Y-10419D01*
X23087Y-10915D01*
X22971Y-11500D01*
X23087Y-12085D01*
X23419Y-12581D01*
X23971Y-13134D01*
Y-30666D01*
X23788Y-30788D01*
X23263Y-31573D01*
X23079Y-32500D01*
X23217Y-33194D01*
X23087Y-33388D01*
X22971Y-33973D01*
Y-82527D01*
X23087Y-83112D01*
X23217Y-83306D01*
X23079Y-84000D01*
X23263Y-84927D01*
X23788Y-85712D01*
X23971Y-85834D01*
Y-88197D01*
X24087Y-88782D01*
X24419Y-89278D01*
X25232Y-90091D01*
Y-93072D01*
X30768D01*
X30768Y-93072D01*
Y-93072D01*
X31158Y-93321D01*
X38919Y-101081D01*
X39415Y-101413D01*
X40000Y-101529D01*
X69500D01*
X70085Y-101413D01*
X70581Y-101081D01*
X86633Y-85029D01*
X91408D01*
Y-96649D01*
X89578D01*
Y-104351D01*
X96296D01*
Y-103607D01*
X96796Y-103281D01*
X97500Y-103421D01*
X97716Y-103378D01*
X97919Y-103581D01*
X98415Y-103913D01*
X99000Y-104029D01*
X144256D01*
X144841Y-103913D01*
X145337Y-103581D01*
X172784Y-76134D01*
X173000Y-76177D01*
X173927Y-75993D01*
X174712Y-75468D01*
X175237Y-74682D01*
X175421Y-73756D01*
X175237Y-72829D01*
X174712Y-72044D01*
X173927Y-71519D01*
X173000Y-71335D01*
X172073Y-71519D01*
X171288Y-72044D01*
X170763Y-72829D01*
X170579Y-73756D01*
X170622Y-73971D01*
X143622Y-100971D01*
X137364D01*
X137117Y-100471D01*
X137249Y-100299D01*
X137508Y-99672D01*
X137531Y-99500D01*
X135000D01*
Y-98500D01*
X137531D01*
X137508Y-98328D01*
X137249Y-97702D01*
X136836Y-97164D01*
X136299Y-96751D01*
X135968Y-96614D01*
Y-94878D01*
X133500D01*
Y-97650D01*
X133000D01*
Y-98150D01*
X130032D01*
Y-100421D01*
X132350D01*
X132380Y-100471D01*
X132103Y-100971D01*
X99915D01*
X99737Y-100073D01*
X99212Y-99288D01*
X98427Y-98763D01*
X97500Y-98579D01*
X96796Y-98719D01*
X96296Y-98393D01*
Y-96649D01*
X94466D01*
Y-83500D01*
Y-73437D01*
X94350Y-72852D01*
X94018Y-72356D01*
X86769Y-65106D01*
Y-64279D01*
X86278D01*
X86237Y-64073D01*
X85712Y-63288D01*
X84927Y-62763D01*
X84000Y-62579D01*
X83073Y-62763D01*
X82288Y-63288D01*
X81763Y-64073D01*
X81722Y-64279D01*
X81231D01*
Y-69422D01*
X86759D01*
X91408Y-74071D01*
Y-81971D01*
X86000D01*
X85415Y-82087D01*
X84919Y-82419D01*
X68866Y-98471D01*
X40633D01*
X30768Y-88606D01*
Y-87928D01*
X27394D01*
X27029Y-87563D01*
Y-85834D01*
X27212Y-85712D01*
X27737Y-84927D01*
X27921Y-84000D01*
X27737Y-83073D01*
X27212Y-82288D01*
X26427Y-81763D01*
X26029Y-81684D01*
Y-34816D01*
X26427Y-34737D01*
X27212Y-34212D01*
X27737Y-33427D01*
X27921Y-32500D01*
X27737Y-31573D01*
X27212Y-30788D01*
X27029Y-30666D01*
Y-12500D01*
X26913Y-11915D01*
X26647Y-11516D01*
X27284Y-10878D01*
X27500Y-10921D01*
X28427Y-10737D01*
X29212Y-10212D01*
X29737Y-9427D01*
X29921Y-8500D01*
X29737Y-7573D01*
X29212Y-6788D01*
X28427Y-6263D01*
X27500Y-6079D01*
D02*
G37*
G36*
X96531Y-9500D02*
X94500D01*
Y-11531D01*
X94672Y-11508D01*
X95298Y-11249D01*
X95836Y-10836D01*
X96249Y-10299D01*
X96509Y-9672D01*
X96531Y-9500D01*
D02*
G37*
G36*
X93500D02*
X91469D01*
X91492Y-9672D01*
X91751Y-10299D01*
X92164Y-10836D01*
X92702Y-11249D01*
X93328Y-11508D01*
X93500Y-11531D01*
Y-9500D01*
D02*
G37*
G36*
X67031D02*
X65000D01*
Y-11531D01*
X65172Y-11508D01*
X65798Y-11249D01*
X66336Y-10836D01*
X66749Y-10299D01*
X67009Y-9672D01*
X67031Y-9500D01*
D02*
G37*
G36*
X64000D02*
X61969D01*
X61992Y-9672D01*
X62251Y-10299D01*
X62664Y-10836D01*
X63201Y-11249D01*
X63828Y-11508D01*
X64000Y-11531D01*
Y-9500D01*
D02*
G37*
G36*
X164500Y-10469D02*
Y-12500D01*
X166531D01*
X166508Y-12328D01*
X166249Y-11701D01*
X165836Y-11164D01*
X165298Y-10751D01*
X164672Y-10492D01*
X164500Y-10469D01*
D02*
G37*
G36*
X163500D02*
X163328Y-10492D01*
X162701Y-10751D01*
X162164Y-11164D01*
X161751Y-11701D01*
X161492Y-12328D01*
X161469Y-12500D01*
X163500D01*
Y-10469D01*
D02*
G37*
G36*
Y-13500D02*
X161469D01*
X161492Y-13672D01*
X161751Y-14299D01*
X161958Y-14569D01*
X161706Y-14942D01*
X161650Y-14989D01*
X161500Y-14969D01*
Y-17000D01*
X163531D01*
X163508Y-16828D01*
X163249Y-16202D01*
X163042Y-15931D01*
X163294Y-15558D01*
X163350Y-15511D01*
X163500Y-15531D01*
Y-13500D01*
D02*
G37*
G36*
X100000Y-12969D02*
Y-15000D01*
X102031D01*
X102008Y-14828D01*
X101749Y-14201D01*
X101336Y-13664D01*
X100798Y-13251D01*
X100172Y-12991D01*
X100000Y-12969D01*
D02*
G37*
G36*
X99000D02*
X98828Y-12991D01*
X98202Y-13251D01*
X97664Y-13664D01*
X97251Y-14201D01*
X96991Y-14828D01*
X96969Y-15000D01*
X99000D01*
Y-12969D01*
D02*
G37*
G36*
X166531Y-13500D02*
X164500D01*
Y-15531D01*
X164672Y-15508D01*
X165298Y-15249D01*
X165836Y-14836D01*
X166249Y-14299D01*
X166508Y-13672D01*
X166531Y-13500D01*
D02*
G37*
G36*
X129500Y-12380D02*
Y-16000D01*
X133120D01*
X133043Y-15417D01*
X132625Y-14407D01*
X131959Y-13541D01*
X131093Y-12875D01*
X130083Y-12457D01*
X129500Y-12380D01*
D02*
G37*
G36*
X128500D02*
X127917Y-12457D01*
X126907Y-12875D01*
X126040Y-13541D01*
X125375Y-14407D01*
X124957Y-15417D01*
X124880Y-16000D01*
X128500D01*
Y-12380D01*
D02*
G37*
G36*
X160500Y-14969D02*
X160328Y-14991D01*
X159702Y-15251D01*
X159164Y-15664D01*
X158751Y-16202D01*
X158492Y-16828D01*
X158469Y-17000D01*
X160500D01*
Y-14969D01*
D02*
G37*
G36*
X102031Y-16000D02*
X100000D01*
Y-18031D01*
X100172Y-18009D01*
X100798Y-17749D01*
X101336Y-17336D01*
X101749Y-16799D01*
X102008Y-16172D01*
X102031Y-16000D01*
D02*
G37*
G36*
X99000D02*
X96969D01*
X96991Y-16172D01*
X97251Y-16799D01*
X97664Y-17336D01*
X98202Y-17749D01*
X98828Y-18009D01*
X99000Y-18031D01*
Y-16000D01*
D02*
G37*
G36*
X236221Y-4074D02*
X234711Y-4222D01*
X233260Y-4663D01*
X231922Y-5378D01*
X230749Y-6340D01*
X229787Y-7512D01*
X229072Y-8850D01*
X228632Y-10302D01*
X228483Y-11811D01*
X228632Y-13320D01*
X229072Y-14772D01*
X229787Y-16110D01*
X230749Y-17282D01*
X231922Y-18244D01*
X233260Y-18959D01*
X234711Y-19400D01*
X236221Y-19548D01*
X237730Y-19400D01*
X239181Y-18959D01*
X240519Y-18244D01*
X241691Y-17282D01*
X242654Y-16110D01*
X243369Y-14772D01*
X243809Y-13320D01*
X243958Y-11811D01*
X243809Y-10302D01*
X243369Y-8850D01*
X242654Y-7512D01*
X241691Y-6340D01*
X240519Y-5378D01*
X239181Y-4663D01*
X237730Y-4222D01*
X236221Y-4074D01*
D02*
G37*
G36*
X142950Y-12550D02*
X135050D01*
Y-20450D01*
X142950D01*
Y-12550D01*
D02*
G37*
G36*
X119000Y-12516D02*
X117969Y-12652D01*
X117008Y-13050D01*
X116183Y-13683D01*
X115550Y-14508D01*
X115152Y-15469D01*
X115016Y-16500D01*
X115152Y-17531D01*
X115550Y-18492D01*
X116183Y-19317D01*
X117008Y-19950D01*
X117969Y-20348D01*
X119000Y-20484D01*
X120031Y-20348D01*
X120992Y-19950D01*
X121817Y-19317D01*
X122450Y-18492D01*
X122848Y-17531D01*
X122984Y-16500D01*
X122848Y-15469D01*
X122450Y-14508D01*
X121817Y-13683D01*
X120992Y-13050D01*
X120031Y-12652D01*
X119000Y-12516D01*
D02*
G37*
G36*
X133120Y-17000D02*
X129500D01*
Y-20620D01*
X130083Y-20543D01*
X131093Y-20125D01*
X131959Y-19459D01*
X132625Y-18593D01*
X133043Y-17583D01*
X133120Y-17000D01*
D02*
G37*
G36*
X128500D02*
X124880D01*
X124957Y-17583D01*
X125375Y-18593D01*
X126040Y-19459D01*
X126907Y-20125D01*
X127917Y-20543D01*
X128500Y-20620D01*
Y-17000D01*
D02*
G37*
G36*
X163531Y-18000D02*
X158469D01*
X158492Y-18172D01*
X158751Y-18799D01*
X159164Y-19336D01*
X159702Y-19749D01*
X160328Y-20008D01*
X160538Y-20036D01*
X160678Y-20559D01*
X160542Y-20664D01*
X160129Y-21202D01*
X159869Y-21828D01*
X159847Y-22000D01*
X164909D01*
X164886Y-21828D01*
X164627Y-21202D01*
X164214Y-20664D01*
X163677Y-20251D01*
X163050Y-19992D01*
X162840Y-19964D01*
X162700Y-19441D01*
X162836Y-19336D01*
X163249Y-18799D01*
X163508Y-18172D01*
X163531Y-18000D01*
D02*
G37*
G36*
X204000Y-21469D02*
Y-23500D01*
X206031D01*
X206009Y-23328D01*
X205749Y-22702D01*
X205336Y-22164D01*
X204799Y-21751D01*
X204172Y-21492D01*
X204000Y-21469D01*
D02*
G37*
G36*
X203000D02*
X202828Y-21492D01*
X202202Y-21751D01*
X201664Y-22164D01*
X201251Y-22702D01*
X200992Y-23328D01*
X200969Y-23500D01*
X203000D01*
Y-21469D01*
D02*
G37*
G36*
X93000Y-21969D02*
Y-24000D01*
X95031D01*
X95008Y-23828D01*
X94749Y-23201D01*
X94336Y-22664D01*
X93799Y-22251D01*
X93172Y-21992D01*
X93000Y-21969D01*
D02*
G37*
G36*
X92000D02*
X91828Y-21992D01*
X91202Y-22251D01*
X90664Y-22664D01*
X90251Y-23201D01*
X89991Y-23828D01*
X89969Y-24000D01*
X92000D01*
Y-21969D01*
D02*
G37*
G36*
X164909Y-23000D02*
X162878D01*
Y-25031D01*
X163050Y-25008D01*
X163677Y-24749D01*
X164214Y-24336D01*
X164627Y-23799D01*
X164886Y-23172D01*
X164909Y-23000D01*
D02*
G37*
G36*
X161878D02*
X159847D01*
X159869Y-23172D01*
X160129Y-23799D01*
X160542Y-24336D01*
X161079Y-24749D01*
X161706Y-25008D01*
X161878Y-25031D01*
Y-23000D01*
D02*
G37*
G36*
X101000Y-24469D02*
Y-26500D01*
X103031D01*
X103008Y-26328D01*
X102749Y-25701D01*
X102336Y-25164D01*
X101798Y-24751D01*
X101172Y-24491D01*
X101000Y-24469D01*
D02*
G37*
G36*
X100000D02*
X99828Y-24491D01*
X99202Y-24751D01*
X98664Y-25164D01*
X98251Y-25701D01*
X97992Y-26328D01*
X97969Y-26500D01*
X100000D01*
Y-24469D01*
D02*
G37*
G36*
X206031Y-24500D02*
X204000D01*
Y-26531D01*
X204172Y-26509D01*
X204799Y-26249D01*
X205336Y-25836D01*
X205749Y-25299D01*
X206009Y-24672D01*
X206031Y-24500D01*
D02*
G37*
G36*
X203000D02*
X200969D01*
X200992Y-24672D01*
X201251Y-25299D01*
X201664Y-25836D01*
X202202Y-26249D01*
X202828Y-26509D01*
X203000Y-26531D01*
Y-24500D01*
D02*
G37*
G36*
X95031Y-25000D02*
X93000D01*
Y-27031D01*
X93172Y-27009D01*
X93799Y-26749D01*
X94336Y-26336D01*
X94749Y-25798D01*
X95008Y-25172D01*
X95031Y-25000D01*
D02*
G37*
G36*
X92000D02*
X89969D01*
X89991Y-25172D01*
X90251Y-25798D01*
X90664Y-26336D01*
X91202Y-26749D01*
X91828Y-27009D01*
X92000Y-27031D01*
Y-25000D01*
D02*
G37*
G36*
X20950Y-19550D02*
X13050D01*
Y-27450D01*
X20950D01*
Y-19550D01*
D02*
G37*
G36*
X178500Y-27469D02*
Y-29500D01*
X180531D01*
X180508Y-29328D01*
X180249Y-28701D01*
X179836Y-28164D01*
X179298Y-27751D01*
X178672Y-27492D01*
X178500Y-27469D01*
D02*
G37*
G36*
X177500D02*
X177328Y-27492D01*
X176701Y-27751D01*
X176164Y-28164D01*
X175751Y-28701D01*
X175491Y-29328D01*
X175469Y-29500D01*
X177500D01*
Y-27469D01*
D02*
G37*
G36*
X165500D02*
Y-29500D01*
X167531D01*
X167508Y-29328D01*
X167249Y-28701D01*
X166836Y-28164D01*
X166298Y-27751D01*
X165672Y-27492D01*
X165500Y-27469D01*
D02*
G37*
G36*
X164500D02*
X164328Y-27492D01*
X163701Y-27751D01*
X163164Y-28164D01*
X162751Y-28701D01*
X162492Y-29328D01*
X162469Y-29500D01*
X164500D01*
Y-27469D01*
D02*
G37*
G36*
X103031Y-27500D02*
X101000D01*
Y-29531D01*
X101172Y-29509D01*
X101798Y-29249D01*
X102336Y-28836D01*
X102749Y-28299D01*
X103008Y-27672D01*
X103031Y-27500D01*
D02*
G37*
G36*
X100000D02*
X97969D01*
X97992Y-27672D01*
X98251Y-28299D01*
X98664Y-28836D01*
X99202Y-29249D01*
X99828Y-29509D01*
X100000Y-29531D01*
Y-27500D01*
D02*
G37*
G36*
X180531Y-30500D02*
X178500D01*
Y-32531D01*
X178672Y-32509D01*
X179298Y-32249D01*
X179836Y-31836D01*
X180249Y-31299D01*
X180508Y-30672D01*
X180531Y-30500D01*
D02*
G37*
G36*
X177500D02*
X175469D01*
X175491Y-30672D01*
X175751Y-31299D01*
X176164Y-31836D01*
X176701Y-32249D01*
X177328Y-32509D01*
X177500Y-32531D01*
Y-30500D01*
D02*
G37*
G36*
X167531D02*
X165500D01*
Y-32531D01*
X165672Y-32509D01*
X166298Y-32249D01*
X166836Y-31836D01*
X167249Y-31299D01*
X167508Y-30672D01*
X167531Y-30500D01*
D02*
G37*
G36*
X164500D02*
X162469D01*
X162492Y-30672D01*
X162751Y-31299D01*
X163164Y-31836D01*
X163701Y-32249D01*
X164328Y-32509D01*
X164500Y-32531D01*
Y-30500D01*
D02*
G37*
G36*
X81000Y-30969D02*
Y-33000D01*
X83031D01*
X83008Y-32828D01*
X82749Y-32201D01*
X82336Y-31664D01*
X81798Y-31251D01*
X81172Y-30992D01*
X81000Y-30969D01*
D02*
G37*
G36*
X80000D02*
X79828Y-30992D01*
X79202Y-31251D01*
X78664Y-31664D01*
X78251Y-32201D01*
X77991Y-32828D01*
X77969Y-33000D01*
X80000D01*
Y-30969D01*
D02*
G37*
G36*
X239500Y-33969D02*
Y-36000D01*
X241531D01*
X241509Y-35828D01*
X241249Y-35201D01*
X240836Y-34664D01*
X240299Y-34251D01*
X239672Y-33992D01*
X239500Y-33969D01*
D02*
G37*
G36*
X238500D02*
X238328Y-33992D01*
X237702Y-34251D01*
X237164Y-34664D01*
X236751Y-35201D01*
X236491Y-35828D01*
X236469Y-36000D01*
X238500D01*
Y-33969D01*
D02*
G37*
G36*
X83031Y-34000D02*
X81000D01*
Y-36031D01*
X81172Y-36009D01*
X81798Y-35749D01*
X82336Y-35336D01*
X82749Y-34798D01*
X83008Y-34172D01*
X83031Y-34000D01*
D02*
G37*
G36*
X80000D02*
X77969D01*
X77991Y-34172D01*
X78251Y-34798D01*
X78664Y-35336D01*
X79202Y-35749D01*
X79828Y-36009D01*
X80000Y-36031D01*
Y-34000D01*
D02*
G37*
G36*
X17000Y-29516D02*
X15969Y-29652D01*
X15008Y-30050D01*
X14183Y-30683D01*
X13550Y-31508D01*
X13152Y-32469D01*
X13016Y-33500D01*
X13152Y-34531D01*
X13550Y-35492D01*
X14183Y-36317D01*
X15008Y-36950D01*
X15969Y-37348D01*
X17000Y-37484D01*
X18031Y-37348D01*
X18992Y-36950D01*
X19817Y-36317D01*
X20450Y-35492D01*
X20848Y-34531D01*
X20984Y-33500D01*
X20848Y-32469D01*
X20450Y-31508D01*
X19817Y-30683D01*
X18992Y-30050D01*
X18031Y-29652D01*
X17000Y-29516D01*
D02*
G37*
G36*
X241531Y-37000D02*
X239500D01*
Y-39031D01*
X239672Y-39009D01*
X240299Y-38749D01*
X240836Y-38336D01*
X241249Y-37799D01*
X241509Y-37172D01*
X241531Y-37000D01*
D02*
G37*
G36*
X238500D02*
X236469D01*
X236491Y-37172D01*
X236751Y-37799D01*
X237164Y-38336D01*
X237702Y-38749D01*
X238328Y-39009D01*
X238500Y-39031D01*
Y-37000D01*
D02*
G37*
G36*
X173500Y-38969D02*
Y-41000D01*
X175531D01*
X175508Y-40828D01*
X175249Y-40202D01*
X174836Y-39664D01*
X174299Y-39251D01*
X173672Y-38991D01*
X173500Y-38969D01*
D02*
G37*
G36*
X172500D02*
X172328Y-38991D01*
X171702Y-39251D01*
X171164Y-39664D01*
X170751Y-40202D01*
X170492Y-40828D01*
X170469Y-41000D01*
X172500D01*
Y-38969D01*
D02*
G37*
G36*
X111000D02*
Y-41000D01*
X113031D01*
X113008Y-40828D01*
X112749Y-40202D01*
X112336Y-39664D01*
X111799Y-39251D01*
X111172Y-38991D01*
X111000Y-38969D01*
D02*
G37*
G36*
X110000D02*
X109828Y-38991D01*
X109202Y-39251D01*
X108664Y-39664D01*
X108251Y-40202D01*
X107992Y-40828D01*
X107969Y-41000D01*
X110000D01*
Y-38969D01*
D02*
G37*
G36*
X39000Y-39469D02*
Y-41500D01*
X41031D01*
X41008Y-41328D01*
X40749Y-40701D01*
X40336Y-40164D01*
X39799Y-39751D01*
X39172Y-39492D01*
X39000Y-39469D01*
D02*
G37*
G36*
X38000D02*
X37828Y-39492D01*
X37201Y-39751D01*
X36664Y-40164D01*
X36251Y-40701D01*
X35991Y-41328D01*
X35969Y-41500D01*
X38000D01*
Y-39469D01*
D02*
G37*
G36*
X194468Y-41579D02*
X192000D01*
Y-43850D01*
X194468D01*
Y-41579D01*
D02*
G37*
G36*
X191000D02*
X188531D01*
Y-43850D01*
X191000D01*
Y-41579D01*
D02*
G37*
G36*
X118500Y-41469D02*
Y-44000D01*
X117500D01*
Y-41469D01*
X117328Y-41491D01*
X116701Y-41751D01*
X116164Y-42164D01*
X115751Y-42702D01*
X115491Y-43328D01*
X115458Y-43579D01*
X115032D01*
Y-45850D01*
X120968D01*
Y-43579D01*
X120542D01*
X120509Y-43328D01*
X120249Y-42702D01*
X119836Y-42164D01*
X119299Y-41751D01*
X118672Y-41491D01*
X118500Y-41469D01*
D02*
G37*
G36*
X175531Y-42000D02*
X173500D01*
Y-44031D01*
X173672Y-44008D01*
X174299Y-43749D01*
X174836Y-43336D01*
X175249Y-42799D01*
X175508Y-42172D01*
X175531Y-42000D01*
D02*
G37*
G36*
X172500D02*
X170469D01*
X170492Y-42172D01*
X170751Y-42799D01*
X171164Y-43336D01*
X171702Y-43749D01*
X172328Y-44008D01*
X172500Y-44031D01*
Y-42000D01*
D02*
G37*
G36*
X113031D02*
X111000D01*
Y-44031D01*
X111172Y-44008D01*
X111799Y-43749D01*
X112336Y-43336D01*
X112749Y-42799D01*
X113008Y-42172D01*
X113031Y-42000D01*
D02*
G37*
G36*
X110000D02*
X107969D01*
X107992Y-42172D01*
X108251Y-42799D01*
X108664Y-43336D01*
X109202Y-43749D01*
X109828Y-44008D01*
X110000Y-44031D01*
Y-42000D01*
D02*
G37*
G36*
X41031Y-42500D02*
X39000D01*
Y-44531D01*
X39172Y-44508D01*
X39799Y-44249D01*
X40336Y-43836D01*
X40749Y-43299D01*
X41008Y-42672D01*
X41031Y-42500D01*
D02*
G37*
G36*
X38000D02*
X35969D01*
X35991Y-42672D01*
X36251Y-43299D01*
X36664Y-43836D01*
X37201Y-44249D01*
X37828Y-44508D01*
X38000Y-44531D01*
Y-42500D01*
D02*
G37*
G36*
X198500Y-43469D02*
Y-45500D01*
X200531D01*
X200508Y-45328D01*
X200249Y-44701D01*
X199836Y-44164D01*
X199299Y-43751D01*
X198672Y-43492D01*
X198500Y-43469D01*
D02*
G37*
G36*
X197500D02*
X197328Y-43492D01*
X196702Y-43751D01*
X196164Y-44164D01*
X195751Y-44701D01*
X195492Y-45328D01*
X195469Y-45500D01*
X197500D01*
Y-43469D01*
D02*
G37*
G36*
X194468Y-44850D02*
X192000D01*
Y-47122D01*
X194468D01*
Y-44850D01*
D02*
G37*
G36*
X191000D02*
X188531D01*
Y-47122D01*
X191000D01*
Y-44850D01*
D02*
G37*
G36*
X17000Y-39516D02*
X15969Y-39652D01*
X15008Y-40050D01*
X14183Y-40683D01*
X13550Y-41508D01*
X13152Y-42469D01*
X13016Y-43500D01*
X13152Y-44531D01*
X13550Y-45492D01*
X14183Y-46317D01*
X15008Y-46950D01*
X15969Y-47348D01*
X17000Y-47484D01*
X18031Y-47348D01*
X18992Y-46950D01*
X19817Y-46317D01*
X20450Y-45492D01*
X20848Y-44531D01*
X20984Y-43500D01*
X20848Y-42469D01*
X20450Y-41508D01*
X19817Y-40683D01*
X18992Y-40050D01*
X18031Y-39652D01*
X17000Y-39516D01*
D02*
G37*
G36*
X200531Y-46500D02*
X198500D01*
Y-48531D01*
X198672Y-48509D01*
X199299Y-48249D01*
X199836Y-47836D01*
X200249Y-47298D01*
X200508Y-46672D01*
X200531Y-46500D01*
D02*
G37*
G36*
X197500D02*
X195469D01*
X195492Y-46672D01*
X195751Y-47298D01*
X196164Y-47836D01*
X196702Y-48249D01*
X197328Y-48509D01*
X197500Y-48531D01*
Y-46500D01*
D02*
G37*
G36*
X120968Y-46850D02*
X118500D01*
Y-49122D01*
X120968D01*
Y-46850D01*
D02*
G37*
G36*
X117500D02*
X115032D01*
Y-49122D01*
X117500D01*
Y-46850D01*
D02*
G37*
G36*
X48500Y-47969D02*
Y-50000D01*
X50531D01*
X50508Y-49828D01*
X50249Y-49202D01*
X49836Y-48664D01*
X49299Y-48251D01*
X48672Y-47991D01*
X48500Y-47969D01*
D02*
G37*
G36*
X47500D02*
X47328Y-47991D01*
X46701Y-48251D01*
X46164Y-48664D01*
X45751Y-49202D01*
X45491Y-49828D01*
X45469Y-50000D01*
X47500D01*
Y-47969D01*
D02*
G37*
G36*
X50531Y-51000D02*
X48500D01*
Y-53031D01*
X48672Y-53009D01*
X49299Y-52749D01*
X49836Y-52336D01*
X50249Y-51798D01*
X50508Y-51172D01*
X50531Y-51000D01*
D02*
G37*
G36*
X47500D02*
X45469D01*
X45491Y-51172D01*
X45751Y-51798D01*
X46164Y-52336D01*
X46701Y-52749D01*
X47328Y-53009D01*
X47500Y-53031D01*
Y-51000D01*
D02*
G37*
G36*
X150000Y-24579D02*
X149073Y-24763D01*
X148288Y-25288D01*
X147763Y-26073D01*
X147579Y-27000D01*
X147622Y-27216D01*
X141867Y-32971D01*
X138500D01*
X137915Y-33087D01*
X137419Y-33419D01*
X120759Y-50078D01*
X115232D01*
Y-53132D01*
X114573Y-53263D01*
X113788Y-53788D01*
X113263Y-54573D01*
X113184Y-54971D01*
X81000D01*
X80415Y-55087D01*
X79919Y-55419D01*
X65217Y-70120D01*
X61769D01*
Y-69078D01*
X56231D01*
Y-70120D01*
X55283D01*
X39581Y-54419D01*
X39085Y-54087D01*
X38500Y-53971D01*
X38334D01*
X38212Y-53788D01*
X37427Y-53263D01*
X36500Y-53079D01*
X35573Y-53263D01*
X34788Y-53788D01*
X34263Y-54573D01*
X34079Y-55500D01*
X34263Y-56427D01*
X34788Y-57212D01*
X35573Y-57737D01*
X36500Y-57921D01*
X37427Y-57737D01*
X38115Y-57277D01*
X53568Y-72731D01*
X54064Y-73063D01*
X54258Y-73101D01*
X54079Y-74000D01*
X54263Y-74927D01*
X54788Y-75712D01*
X55573Y-76237D01*
X56500Y-76421D01*
X57427Y-76237D01*
X58212Y-75712D01*
X58737Y-74927D01*
X58877Y-74221D01*
X61769D01*
Y-73179D01*
X65850D01*
X66436Y-73063D01*
X66932Y-72731D01*
X81634Y-58029D01*
X113971D01*
Y-76000D01*
X114087Y-76585D01*
X114419Y-77081D01*
X127622Y-90284D01*
X127579Y-90500D01*
X127763Y-91427D01*
X128288Y-92212D01*
X129073Y-92737D01*
X130000Y-92921D01*
X130231Y-93111D01*
Y-93922D01*
X135768D01*
Y-88779D01*
X131699D01*
X130927Y-88263D01*
X130000Y-88079D01*
X129784Y-88122D01*
X117029Y-75366D01*
Y-57334D01*
X117212Y-57212D01*
X117737Y-56427D01*
X117921Y-55500D01*
X118376Y-55221D01*
X120768D01*
Y-53399D01*
X121130D01*
X121715Y-53283D01*
X122212Y-52951D01*
X139134Y-36029D01*
X142500D01*
X143085Y-35913D01*
X143581Y-35581D01*
X149694Y-29469D01*
X150000Y-29529D01*
X150366D01*
X166971Y-46134D01*
Y-46350D01*
X167087Y-46936D01*
X167419Y-47432D01*
X174568Y-54581D01*
X175064Y-54913D01*
X175650Y-55029D01*
X189166D01*
X189288Y-55212D01*
X190073Y-55737D01*
X191000Y-55921D01*
X191927Y-55737D01*
X192712Y-55212D01*
X192834Y-55029D01*
X238866D01*
X242122Y-58284D01*
X242079Y-58500D01*
X242263Y-59427D01*
X242788Y-60212D01*
X243573Y-60737D01*
X244500Y-60921D01*
X245427Y-60737D01*
X246212Y-60212D01*
X246737Y-59427D01*
X246921Y-58500D01*
X246737Y-57573D01*
X246212Y-56788D01*
X245427Y-56263D01*
X244500Y-56079D01*
X244284Y-56122D01*
X240581Y-52419D01*
X240085Y-52087D01*
X239500Y-51971D01*
X194269D01*
Y-48078D01*
X188732D01*
Y-51971D01*
X176283D01*
X170029Y-45717D01*
Y-45500D01*
X169913Y-44915D01*
X169581Y-44419D01*
X152378Y-27216D01*
X152421Y-27000D01*
X152237Y-26073D01*
X151712Y-25288D01*
X150927Y-24763D01*
X150000Y-24579D01*
D02*
G37*
G36*
X215000Y-61469D02*
Y-63500D01*
X217031D01*
X217008Y-63328D01*
X216749Y-62701D01*
X216336Y-62164D01*
X215798Y-61751D01*
X215172Y-61492D01*
X215000Y-61469D01*
D02*
G37*
G36*
X214000D02*
X213828Y-61492D01*
X213201Y-61751D01*
X212664Y-62164D01*
X212251Y-62701D01*
X211992Y-63328D01*
X211969Y-63500D01*
X214000D01*
Y-61469D01*
D02*
G37*
G36*
X17500D02*
Y-63500D01*
X19531D01*
X19509Y-63328D01*
X19249Y-62701D01*
X18836Y-62164D01*
X18298Y-61751D01*
X17672Y-61492D01*
X17500Y-61469D01*
D02*
G37*
G36*
X16500D02*
X16328Y-61492D01*
X15701Y-61751D01*
X15164Y-62164D01*
X14751Y-62701D01*
X14491Y-63328D01*
X14469Y-63500D01*
X16500D01*
Y-61469D01*
D02*
G37*
G36*
X61968Y-62579D02*
X59500D01*
Y-64850D01*
X61968D01*
Y-62579D01*
D02*
G37*
G36*
X58500D02*
X56032D01*
Y-64850D01*
X58500D01*
Y-62579D01*
D02*
G37*
G36*
X217031Y-64500D02*
X215000D01*
Y-66531D01*
X215172Y-66509D01*
X215798Y-66249D01*
X216336Y-65836D01*
X216749Y-65298D01*
X217008Y-64672D01*
X217031Y-64500D01*
D02*
G37*
G36*
X214000D02*
X211969D01*
X211992Y-64672D01*
X212251Y-65298D01*
X212664Y-65836D01*
X213201Y-66249D01*
X213828Y-66509D01*
X214000Y-66531D01*
Y-64500D01*
D02*
G37*
G36*
X19531D02*
X17500D01*
Y-66531D01*
X17672Y-66509D01*
X18298Y-66249D01*
X18836Y-65836D01*
X19249Y-65298D01*
X19509Y-64672D01*
X19531Y-64500D01*
D02*
G37*
G36*
X16500D02*
X14469D01*
X14491Y-64672D01*
X14751Y-65298D01*
X15164Y-65836D01*
X15701Y-66249D01*
X16328Y-66509D01*
X16500Y-66531D01*
Y-64500D01*
D02*
G37*
G36*
X61968Y-65850D02*
X59500D01*
Y-68122D01*
X61968D01*
Y-65850D01*
D02*
G37*
G36*
X58500D02*
X56032D01*
Y-68122D01*
X58500D01*
Y-65850D01*
D02*
G37*
G36*
X78000Y-66969D02*
Y-69000D01*
X80031D01*
X80009Y-68828D01*
X79749Y-68202D01*
X79336Y-67664D01*
X78799Y-67251D01*
X78172Y-66992D01*
X78000Y-66969D01*
D02*
G37*
G36*
X77000D02*
X76828Y-66992D01*
X76201Y-67251D01*
X75664Y-67664D01*
X75251Y-68202D01*
X74992Y-68828D01*
X74969Y-69000D01*
X77000D01*
Y-66969D01*
D02*
G37*
G36*
X6500Y-65880D02*
Y-69500D01*
X10120D01*
X10043Y-68917D01*
X9625Y-67907D01*
X8959Y-67040D01*
X8093Y-66375D01*
X7083Y-65957D01*
X6500Y-65880D01*
D02*
G37*
G36*
X5500D02*
X4917Y-65957D01*
X3907Y-66375D01*
X3040Y-67040D01*
X2375Y-67907D01*
X1957Y-68917D01*
X1880Y-69500D01*
X5500D01*
Y-65880D01*
D02*
G37*
G36*
X180500Y-67969D02*
Y-70000D01*
X182531D01*
X182509Y-69828D01*
X182249Y-69201D01*
X181836Y-68664D01*
X181298Y-68251D01*
X180672Y-67992D01*
X180500Y-67969D01*
D02*
G37*
G36*
X179500D02*
X179328Y-67992D01*
X178701Y-68251D01*
X178164Y-68664D01*
X177751Y-69201D01*
X177491Y-69828D01*
X177469Y-70000D01*
X179500D01*
Y-67969D01*
D02*
G37*
G36*
X208950Y-64050D02*
X201050D01*
Y-71950D01*
X208950D01*
Y-64050D01*
D02*
G37*
G36*
X195000Y-64016D02*
X193969Y-64152D01*
X193008Y-64550D01*
X192183Y-65183D01*
X191550Y-66008D01*
X191152Y-66969D01*
X191016Y-68000D01*
X191152Y-69031D01*
X191550Y-69992D01*
X192183Y-70817D01*
X193008Y-71450D01*
X193969Y-71848D01*
X195000Y-71984D01*
X196031Y-71848D01*
X196992Y-71450D01*
X197817Y-70817D01*
X198450Y-69992D01*
X198848Y-69031D01*
X198984Y-68000D01*
X198848Y-66969D01*
X198450Y-66008D01*
X197817Y-65183D01*
X196992Y-64550D01*
X196031Y-64152D01*
X195000Y-64016D01*
D02*
G37*
G36*
X80031Y-70000D02*
X78000D01*
Y-72031D01*
X78172Y-72009D01*
X78799Y-71749D01*
X79336Y-71336D01*
X79749Y-70798D01*
X80009Y-70172D01*
X80031Y-70000D01*
D02*
G37*
G36*
X77000D02*
X74969D01*
X74992Y-70172D01*
X75251Y-70798D01*
X75664Y-71336D01*
X76201Y-71749D01*
X76828Y-72009D01*
X77000Y-72031D01*
Y-70000D01*
D02*
G37*
G36*
X86968Y-70378D02*
X84500D01*
Y-72650D01*
X86968D01*
Y-70378D01*
D02*
G37*
G36*
X99000Y-70969D02*
Y-73000D01*
X101031D01*
X101008Y-72828D01*
X100749Y-72202D01*
X100336Y-71664D01*
X99799Y-71251D01*
X99172Y-70991D01*
X99000Y-70969D01*
D02*
G37*
G36*
X98000D02*
X97828Y-70991D01*
X97202Y-71251D01*
X96664Y-71664D01*
X96251Y-72202D01*
X95991Y-72828D01*
X95969Y-73000D01*
X98000D01*
Y-70969D01*
D02*
G37*
G36*
X182531Y-71000D02*
X180500D01*
Y-73031D01*
X180672Y-73009D01*
X181298Y-72749D01*
X181836Y-72336D01*
X182249Y-71798D01*
X182509Y-71172D01*
X182531Y-71000D01*
D02*
G37*
G36*
X179500D02*
X177469D01*
X177491Y-71172D01*
X177751Y-71798D01*
X178164Y-72336D01*
X178701Y-72749D01*
X179328Y-73009D01*
X179500Y-73031D01*
Y-71000D01*
D02*
G37*
G36*
X10120Y-70500D02*
X6500D01*
Y-74120D01*
X7083Y-74043D01*
X8093Y-73625D01*
X8959Y-72960D01*
X9625Y-72093D01*
X10043Y-71083D01*
X10120Y-70500D01*
D02*
G37*
G36*
X5500D02*
X1880D01*
X1957Y-71083D01*
X2375Y-72093D01*
X3040Y-72960D01*
X3907Y-73625D01*
X4917Y-74043D01*
X5500Y-74120D01*
Y-70500D01*
D02*
G37*
G36*
X160500Y-72469D02*
Y-74500D01*
X162531D01*
X162508Y-74328D01*
X162249Y-73702D01*
X161836Y-73164D01*
X161299Y-72751D01*
X160672Y-72492D01*
X160500Y-72469D01*
D02*
G37*
G36*
X159500D02*
X159328Y-72492D01*
X158702Y-72751D01*
X158164Y-73164D01*
X157751Y-73702D01*
X157492Y-74328D01*
X157469Y-74500D01*
X159500D01*
Y-72469D01*
D02*
G37*
G36*
X101031Y-74000D02*
X99000D01*
Y-76031D01*
X99172Y-76008D01*
X99799Y-75749D01*
X100336Y-75336D01*
X100749Y-74799D01*
X101008Y-74172D01*
X101031Y-74000D01*
D02*
G37*
G36*
X98000D02*
X95969D01*
X95991Y-74172D01*
X96251Y-74799D01*
X96664Y-75336D01*
X97202Y-75749D01*
X97828Y-76008D01*
X98000Y-76031D01*
Y-74000D01*
D02*
G37*
G36*
X83500Y-70378D02*
X81032D01*
Y-72114D01*
X80702Y-72251D01*
X80164Y-72664D01*
X79751Y-73202D01*
X79492Y-73828D01*
X79469Y-74000D01*
X82000D01*
Y-74500D01*
X82500D01*
Y-77031D01*
X82672Y-77008D01*
X83298Y-76749D01*
X83836Y-76336D01*
X84155Y-75921D01*
X86968D01*
Y-73650D01*
X84000D01*
Y-73150D01*
X83500D01*
Y-70378D01*
D02*
G37*
G36*
X81500Y-75000D02*
X79469D01*
X79492Y-75172D01*
X79751Y-75798D01*
X80164Y-76336D01*
X80702Y-76749D01*
X81328Y-77008D01*
X81500Y-77031D01*
Y-75000D01*
D02*
G37*
G36*
X162531Y-75500D02*
X160500D01*
Y-77531D01*
X160672Y-77508D01*
X161299Y-77249D01*
X161836Y-76836D01*
X162249Y-76298D01*
X162508Y-75672D01*
X162531Y-75500D01*
D02*
G37*
G36*
X159500D02*
X157469D01*
X157492Y-75672D01*
X157751Y-76298D01*
X158164Y-76836D01*
X158702Y-77249D01*
X159328Y-77508D01*
X159500Y-77531D01*
Y-75500D01*
D02*
G37*
G36*
X150000Y-77469D02*
Y-79500D01*
X152031D01*
X152008Y-79328D01*
X151749Y-78702D01*
X151336Y-78164D01*
X150798Y-77751D01*
X150172Y-77491D01*
X150000Y-77469D01*
D02*
G37*
G36*
X149000D02*
X148828Y-77491D01*
X148202Y-77751D01*
X147664Y-78164D01*
X147251Y-78702D01*
X146992Y-79328D01*
X146969Y-79500D01*
X149000D01*
Y-77469D01*
D02*
G37*
G36*
X215000Y-79469D02*
Y-81500D01*
X217031D01*
X217008Y-81328D01*
X216749Y-80702D01*
X216336Y-80164D01*
X215798Y-79751D01*
X215172Y-79492D01*
X215000Y-79469D01*
D02*
G37*
G36*
X214000D02*
X213828Y-79492D01*
X213201Y-79751D01*
X212664Y-80164D01*
X212251Y-80702D01*
X211992Y-81328D01*
X211969Y-81500D01*
X214000D01*
Y-79469D01*
D02*
G37*
G36*
X152031Y-80500D02*
X150000D01*
Y-82531D01*
X150172Y-82508D01*
X150798Y-82249D01*
X151336Y-81836D01*
X151749Y-81299D01*
X152008Y-80672D01*
X152031Y-80500D01*
D02*
G37*
G36*
X149000D02*
X146969D01*
X146992Y-80672D01*
X147251Y-81299D01*
X147664Y-81836D01*
X148202Y-82249D01*
X148828Y-82508D01*
X149000Y-82531D01*
Y-80500D01*
D02*
G37*
G36*
X9950Y-76050D02*
X2050D01*
Y-83950D01*
X9950D01*
Y-76050D01*
D02*
G37*
G36*
X76500Y-82469D02*
Y-84500D01*
X78531D01*
X78509Y-84328D01*
X78249Y-83701D01*
X77836Y-83164D01*
X77298Y-82751D01*
X76672Y-82491D01*
X76500Y-82469D01*
D02*
G37*
G36*
X75500D02*
X75328Y-82491D01*
X74701Y-82751D01*
X74164Y-83164D01*
X73751Y-83701D01*
X73492Y-84328D01*
X73469Y-84500D01*
X75500D01*
Y-82469D01*
D02*
G37*
G36*
X217031Y-82500D02*
X215000D01*
Y-84531D01*
X215172Y-84509D01*
X215798Y-84249D01*
X216336Y-83836D01*
X216749Y-83298D01*
X217008Y-82672D01*
X217031Y-82500D01*
D02*
G37*
G36*
X214000D02*
X211969D01*
X211992Y-82672D01*
X212251Y-83298D01*
X212664Y-83836D01*
X213201Y-84249D01*
X213828Y-84509D01*
X214000Y-84531D01*
Y-82500D01*
D02*
G37*
G36*
X207500Y-84469D02*
Y-86500D01*
X209531D01*
X209508Y-86328D01*
X209249Y-85702D01*
X208836Y-85164D01*
X208298Y-84751D01*
X207672Y-84491D01*
X207500Y-84469D01*
D02*
G37*
G36*
X206500D02*
X206328Y-84491D01*
X205701Y-84751D01*
X205164Y-85164D01*
X204751Y-85702D01*
X204491Y-86328D01*
X204469Y-86500D01*
X206500D01*
Y-84469D01*
D02*
G37*
G36*
X78531Y-85500D02*
X76500D01*
Y-87531D01*
X76672Y-87508D01*
X77298Y-87249D01*
X77836Y-86836D01*
X78249Y-86299D01*
X78509Y-85672D01*
X78531Y-85500D01*
D02*
G37*
G36*
X75500D02*
X73469D01*
X73492Y-85672D01*
X73751Y-86299D01*
X74164Y-86836D01*
X74701Y-87249D01*
X75328Y-87508D01*
X75500Y-87531D01*
Y-85500D01*
D02*
G37*
G36*
X147500Y-87469D02*
Y-89500D01*
X149531D01*
X149509Y-89328D01*
X149249Y-88701D01*
X148836Y-88164D01*
X148299Y-87751D01*
X147672Y-87492D01*
X147500Y-87469D01*
D02*
G37*
G36*
X146500D02*
X146328Y-87492D01*
X145702Y-87751D01*
X145164Y-88164D01*
X144751Y-88701D01*
X144492Y-89328D01*
X144469Y-89500D01*
X146500D01*
Y-87469D01*
D02*
G37*
G36*
X209531Y-87500D02*
X207500D01*
Y-89531D01*
X207672Y-89508D01*
X208298Y-89249D01*
X208836Y-88836D01*
X209249Y-88298D01*
X209508Y-87672D01*
X209531Y-87500D01*
D02*
G37*
G36*
X206500D02*
X204469D01*
X204491Y-87672D01*
X204751Y-88298D01*
X205164Y-88836D01*
X205701Y-89249D01*
X206328Y-89508D01*
X206500Y-89531D01*
Y-87500D01*
D02*
G37*
G36*
X20000Y-88969D02*
Y-91000D01*
X22031D01*
X22008Y-90828D01*
X21749Y-90201D01*
X21336Y-89664D01*
X20798Y-89251D01*
X20172Y-88991D01*
X20000Y-88969D01*
D02*
G37*
G36*
X19000D02*
X18828Y-88991D01*
X18202Y-89251D01*
X17664Y-89664D01*
X17251Y-90201D01*
X16992Y-90828D01*
X16969Y-91000D01*
X19000D01*
Y-88969D01*
D02*
G37*
G36*
X61000Y-89469D02*
Y-91500D01*
X63031D01*
X63008Y-91328D01*
X62749Y-90702D01*
X62336Y-90164D01*
X61799Y-89751D01*
X61172Y-89491D01*
X61000Y-89469D01*
D02*
G37*
G36*
X60000D02*
X59828Y-89491D01*
X59202Y-89751D01*
X58664Y-90164D01*
X58251Y-90702D01*
X57991Y-91328D01*
X57969Y-91500D01*
X60000D01*
Y-89469D01*
D02*
G37*
G36*
X225500Y-89969D02*
Y-92000D01*
X227531D01*
X227508Y-91828D01*
X227249Y-91202D01*
X226836Y-90664D01*
X226298Y-90251D01*
X225672Y-89991D01*
X225500Y-89969D01*
D02*
G37*
G36*
X224500D02*
X224328Y-89991D01*
X223702Y-90251D01*
X223164Y-90664D01*
X222751Y-91202D01*
X222492Y-91828D01*
X222469Y-92000D01*
X224500D01*
Y-89969D01*
D02*
G37*
G36*
X242950Y-84550D02*
X235050D01*
Y-92450D01*
X242950D01*
Y-84550D01*
D02*
G37*
G36*
X149531Y-90500D02*
X147500D01*
Y-92531D01*
X147672Y-92509D01*
X148299Y-92249D01*
X148836Y-91836D01*
X149249Y-91299D01*
X149509Y-90672D01*
X149531Y-90500D01*
D02*
G37*
G36*
X146500D02*
X144469D01*
X144492Y-90672D01*
X144751Y-91299D01*
X145164Y-91836D01*
X145702Y-92249D01*
X146328Y-92509D01*
X146500Y-92531D01*
Y-90500D01*
D02*
G37*
G36*
X51000Y-90969D02*
Y-93000D01*
X53031D01*
X53009Y-92828D01*
X52749Y-92202D01*
X52336Y-91664D01*
X51798Y-91251D01*
X51172Y-90991D01*
X51000Y-90969D01*
D02*
G37*
G36*
X50000D02*
X49828Y-90991D01*
X49202Y-91251D01*
X48664Y-91664D01*
X48251Y-92202D01*
X47991Y-92828D01*
X47969Y-93000D01*
X50000D01*
Y-90969D01*
D02*
G37*
G36*
X22031Y-92000D02*
X20000D01*
Y-94031D01*
X20172Y-94008D01*
X20798Y-93749D01*
X21336Y-93336D01*
X21749Y-92799D01*
X22008Y-92172D01*
X22031Y-92000D01*
D02*
G37*
G36*
X19000D02*
X16969D01*
X16992Y-92172D01*
X17251Y-92799D01*
X17664Y-93336D01*
X18202Y-93749D01*
X18828Y-94008D01*
X19000Y-94031D01*
Y-92000D01*
D02*
G37*
G36*
X63031Y-92500D02*
X61000D01*
Y-94531D01*
X61172Y-94508D01*
X61799Y-94249D01*
X62336Y-93836D01*
X62749Y-93299D01*
X63008Y-92672D01*
X63031Y-92500D01*
D02*
G37*
G36*
X60000D02*
X57969D01*
X57991Y-92672D01*
X58251Y-93299D01*
X58664Y-93836D01*
X59202Y-94249D01*
X59828Y-94508D01*
X60000Y-94531D01*
Y-92500D01*
D02*
G37*
G36*
X100000Y-92969D02*
Y-95000D01*
X102031D01*
X102008Y-94828D01*
X101749Y-94201D01*
X101336Y-93664D01*
X100798Y-93251D01*
X100172Y-92992D01*
X100000Y-92969D01*
D02*
G37*
G36*
X99000D02*
X98828Y-92992D01*
X98202Y-93251D01*
X97664Y-93664D01*
X97251Y-94201D01*
X96991Y-94828D01*
X96969Y-95000D01*
X99000D01*
Y-92969D01*
D02*
G37*
G36*
X227531Y-93000D02*
X225500D01*
Y-95031D01*
X225672Y-95008D01*
X226298Y-94749D01*
X226836Y-94336D01*
X227249Y-93799D01*
X227508Y-93172D01*
X227531Y-93000D01*
D02*
G37*
G36*
X224500D02*
X222469D01*
X222492Y-93172D01*
X222751Y-93799D01*
X223164Y-94336D01*
X223702Y-94749D01*
X224328Y-95008D01*
X224500Y-95031D01*
Y-93000D01*
D02*
G37*
G36*
X53031Y-94000D02*
X51000D01*
Y-96031D01*
X51172Y-96008D01*
X51798Y-95749D01*
X52336Y-95336D01*
X52749Y-94798D01*
X53009Y-94172D01*
X53031Y-94000D01*
D02*
G37*
G36*
X50000D02*
X47969D01*
X47991Y-94172D01*
X48251Y-94798D01*
X48664Y-95336D01*
X49202Y-95749D01*
X49828Y-96008D01*
X50000Y-96031D01*
Y-94000D01*
D02*
G37*
G36*
X30968Y-94028D02*
X28500D01*
Y-96299D01*
X30968D01*
Y-94028D01*
D02*
G37*
G36*
X27500D02*
X25032D01*
Y-96299D01*
X27500D01*
Y-94028D01*
D02*
G37*
G36*
X132500Y-94878D02*
X130032D01*
Y-97150D01*
X132500D01*
Y-94878D01*
D02*
G37*
G36*
X239500Y-94380D02*
Y-98000D01*
X243120D01*
X243043Y-97417D01*
X242625Y-96407D01*
X241960Y-95540D01*
X241093Y-94875D01*
X240083Y-94457D01*
X239500Y-94380D01*
D02*
G37*
G36*
X238500D02*
X237917Y-94457D01*
X236907Y-94875D01*
X236040Y-95540D01*
X235375Y-96407D01*
X234957Y-97417D01*
X234880Y-98000D01*
X238500D01*
Y-94380D01*
D02*
G37*
G36*
X102031Y-96000D02*
X100000D01*
Y-98031D01*
X100172Y-98009D01*
X100798Y-97749D01*
X101336Y-97336D01*
X101749Y-96798D01*
X102008Y-96172D01*
X102031Y-96000D01*
D02*
G37*
G36*
X99000D02*
X96969D01*
X96991Y-96172D01*
X97251Y-96798D01*
X97664Y-97336D01*
X98202Y-97749D01*
X98828Y-98009D01*
X99000Y-98031D01*
Y-96000D01*
D02*
G37*
G36*
X81500Y-96469D02*
X81328Y-96491D01*
X80702Y-96751D01*
X80164Y-97164D01*
X79751Y-97702D01*
X79492Y-98328D01*
X79469Y-98500D01*
X81500D01*
Y-96469D01*
D02*
G37*
G36*
X239000Y-98500D02*
D01*
D01*
D01*
D02*
G37*
G36*
X30968Y-97299D02*
X28500D01*
Y-99571D01*
X30968D01*
Y-97299D01*
D02*
G37*
G36*
X27500D02*
X25032D01*
Y-99571D01*
X27500D01*
Y-97299D01*
D02*
G37*
G36*
X88622Y-96449D02*
X85563D01*
Y-100000D01*
X88622D01*
Y-96449D01*
D02*
G37*
G36*
X216500Y-98469D02*
Y-100500D01*
X218531D01*
X218509Y-100328D01*
X218249Y-99701D01*
X217836Y-99164D01*
X217299Y-98751D01*
X216672Y-98492D01*
X216500Y-98469D01*
D02*
G37*
G36*
X215500D02*
X215328Y-98492D01*
X214702Y-98751D01*
X214164Y-99164D01*
X213751Y-99701D01*
X213492Y-100328D01*
X213469Y-100500D01*
X215500D01*
Y-98469D01*
D02*
G37*
G36*
X75500Y-99969D02*
Y-102000D01*
X77531D01*
X77508Y-101828D01*
X77249Y-101201D01*
X76836Y-100664D01*
X76298Y-100251D01*
X75672Y-99992D01*
X75500Y-99969D01*
D02*
G37*
G36*
X74500D02*
X74328Y-99992D01*
X73702Y-100251D01*
X73164Y-100664D01*
X72751Y-101201D01*
X72492Y-101828D01*
X72469Y-102000D01*
X74500D01*
Y-99969D01*
D02*
G37*
G36*
X243120Y-99000D02*
X239500D01*
Y-102620D01*
X240083Y-102543D01*
X241093Y-102125D01*
X241960Y-101460D01*
X242625Y-100593D01*
X243043Y-99583D01*
X243120Y-99000D01*
D02*
G37*
G36*
X238500D02*
X234880D01*
X234957Y-99583D01*
X235375Y-100593D01*
X236040Y-101460D01*
X236907Y-102125D01*
X237917Y-102543D01*
X238500Y-102620D01*
Y-99000D01*
D02*
G37*
G36*
X182500Y-101469D02*
Y-103500D01*
X184531D01*
X184509Y-103328D01*
X184249Y-102701D01*
X183836Y-102164D01*
X183299Y-101751D01*
X182672Y-101491D01*
X182500Y-101469D01*
D02*
G37*
G36*
X181500D02*
X181328Y-101491D01*
X180701Y-101751D01*
X180164Y-102164D01*
X179751Y-102701D01*
X179491Y-103328D01*
X179469Y-103500D01*
X181500D01*
Y-101469D01*
D02*
G37*
G36*
X218531Y-101500D02*
X216500D01*
Y-103531D01*
X216672Y-103508D01*
X217299Y-103249D01*
X217836Y-102836D01*
X218249Y-102298D01*
X218509Y-101672D01*
X218531Y-101500D01*
D02*
G37*
G36*
X215500D02*
X213469D01*
X213492Y-101672D01*
X213751Y-102298D01*
X214164Y-102836D01*
X214702Y-103249D01*
X215328Y-103508D01*
X215500Y-103531D01*
Y-101500D01*
D02*
G37*
G36*
X88622Y-101000D02*
X85563D01*
Y-104551D01*
X88622D01*
Y-101000D01*
D02*
G37*
G36*
X84563Y-96449D02*
X82500D01*
Y-99000D01*
X82000D01*
Y-99500D01*
X79469D01*
X79492Y-99672D01*
X79751Y-100299D01*
X80164Y-100836D01*
X80702Y-101249D01*
X81328Y-101508D01*
X81504Y-101532D01*
Y-104551D01*
X84563D01*
Y-100500D01*
Y-96449D01*
D02*
G37*
G36*
X77531Y-103000D02*
X75500D01*
Y-105031D01*
X75672Y-105008D01*
X76298Y-104749D01*
X76836Y-104336D01*
X77249Y-103798D01*
X77508Y-103172D01*
X77531Y-103000D01*
D02*
G37*
G36*
X74500D02*
X72469D01*
X72492Y-103172D01*
X72751Y-103798D01*
X73164Y-104336D01*
X73702Y-104749D01*
X74328Y-105008D01*
X74500Y-105031D01*
Y-103000D01*
D02*
G37*
G36*
X9500Y-90263D02*
X7991Y-90411D01*
X6539Y-90852D01*
X5201Y-91567D01*
X4029Y-92529D01*
X3067Y-93701D01*
X2352Y-95039D01*
X1911Y-96491D01*
X1763Y-98000D01*
X1911Y-99510D01*
X2352Y-100961D01*
X3067Y-102299D01*
X4029Y-103471D01*
X5201Y-104433D01*
X6539Y-105148D01*
X7991Y-105589D01*
X9500Y-105737D01*
X11010Y-105589D01*
X12461Y-105148D01*
X13799Y-104433D01*
X14971Y-103471D01*
X15933Y-102299D01*
X16648Y-100961D01*
X17089Y-99510D01*
X17237Y-98000D01*
X17089Y-96491D01*
X16648Y-95039D01*
X15933Y-93701D01*
X14971Y-92529D01*
X13799Y-91567D01*
X12461Y-90852D01*
X11010Y-90411D01*
X9500Y-90263D01*
D02*
G37*
G36*
X184531Y-104500D02*
X182500D01*
Y-106531D01*
X182672Y-106509D01*
X183299Y-106249D01*
X183836Y-105836D01*
X184249Y-105298D01*
X184509Y-104672D01*
X184531Y-104500D01*
D02*
G37*
G36*
X181500D02*
X179469D01*
X179491Y-104672D01*
X179751Y-105298D01*
X180164Y-105836D01*
X180701Y-106249D01*
X181328Y-106509D01*
X181500Y-106531D01*
Y-104500D01*
D02*
G37*
%LPD*%
D16*
X0Y-107106D02*
Y0D01*
X248500D01*
Y-107106D02*
Y0D01*
X0Y-107106D02*
X248500D01*
D19*
X118000Y-46350D02*
D03*
Y-52650D02*
D03*
X133000Y-97650D02*
D03*
Y-91350D02*
D03*
X191500Y-44350D02*
D03*
Y-50650D02*
D03*
X28000Y-96799D02*
D03*
Y-90500D02*
D03*
X59000Y-71650D02*
D03*
Y-65350D02*
D03*
X84000Y-66850D02*
D03*
Y-73150D02*
D03*
D25*
X85063Y-100500D02*
D03*
X92937D02*
D03*
D48*
X25500Y-88197D02*
Y-83527D01*
Y-88197D02*
X26732Y-89428D01*
X26803Y-89500D02*
X29500D01*
X144256Y-102500D02*
X173000Y-73756D01*
X99000Y-102500D02*
X144256D01*
X93437Y-101000D02*
X97500D01*
X99000Y-102500D01*
X132484Y-90835D02*
X133000Y-91350D01*
X130335Y-90835D02*
X132484D01*
X130000Y-90500D02*
X130335Y-90835D01*
X239500Y-53500D02*
X244500Y-58500D01*
X191000Y-53500D02*
X239500D01*
X115500Y-76000D02*
X130000Y-90500D01*
X115500Y-76000D02*
Y-55500D01*
X168500Y-46350D02*
X175650Y-53500D01*
X191000D01*
X151000Y-28000D02*
X168500Y-45500D01*
Y-46350D02*
Y-45500D01*
X138500Y-34500D02*
X142500D01*
X118780Y-51870D02*
X121130D01*
X118000Y-52650D02*
X118780Y-51870D01*
X121130D02*
X138500Y-34500D01*
X142500D02*
X150000Y-27000D01*
Y-28000D02*
X151000D01*
X150000D02*
Y-27000D01*
X118000Y-53000D02*
Y-52650D01*
X191000Y-53500D02*
X191500Y-53000D01*
Y-50650D01*
X24500Y-33973D02*
X25500Y-32973D01*
X24500Y-82527D02*
Y-33973D01*
Y-82527D02*
X25500Y-83527D01*
Y-32973D02*
Y-12500D01*
X29500Y-89500D02*
X40000Y-100000D01*
X65850Y-71650D02*
X81000Y-56500D01*
X114500D01*
X59000Y-71650D02*
X65850D01*
X84774Y-65774D02*
X85274D01*
X92937Y-73437D01*
X84000Y-65000D02*
X84774Y-65774D01*
X84000Y-66850D02*
Y-65000D01*
X115500Y-55500D02*
X118000Y-53000D01*
X114500Y-56500D02*
X115500Y-55500D01*
X56500Y-74000D02*
X56650D01*
X59000Y-71650D01*
X54650D02*
X59000D01*
X38500Y-55500D02*
X54650Y-71650D01*
X36500Y-55500D02*
X38500D01*
X92937Y-83500D02*
Y-73437D01*
Y-100500D02*
Y-83500D01*
X40000Y-100000D02*
X69500D01*
X86000Y-83500D01*
X92937D01*
Y-100500D02*
X93437Y-101000D01*
X24500Y-11500D02*
X27500Y-8500D01*
X24500Y-11500D02*
X25500Y-12500D01*
D49*
X239000Y-98500D02*
D03*
X195000Y-68000D02*
D03*
X6000Y-70000D02*
D03*
X17000Y-33500D02*
D03*
Y-43500D02*
D03*
X129000Y-16500D02*
D03*
X119000D02*
D03*
D50*
X239000Y-88500D02*
D03*
X6000Y-80000D02*
D03*
X17000Y-23500D02*
D03*
D51*
X205000Y-68000D02*
D03*
X139000Y-16500D02*
D03*
D52*
X9500Y-98000D02*
D03*
X236221Y-11811D02*
D03*
D53*
X173000Y-73756D02*
D03*
X214500Y-82000D02*
D03*
X135000Y-99000D02*
D03*
X150000Y-27000D02*
D03*
X118000Y-44000D02*
D03*
X130000Y-90500D02*
D03*
X149500Y-80000D02*
D03*
X165000Y-30000D02*
D03*
X160000Y-75000D02*
D03*
X147000Y-90000D02*
D03*
X182000Y-104000D02*
D03*
X216000Y-101000D02*
D03*
X207000Y-87000D02*
D03*
X225000Y-92500D02*
D03*
X198000Y-46000D02*
D03*
X180000Y-70500D02*
D03*
X214500Y-64000D02*
D03*
X244500Y-58500D02*
D03*
X191000Y-53500D02*
D03*
X173000Y-41500D02*
D03*
X239000Y-36500D02*
D03*
X178000Y-30000D02*
D03*
X99500Y-15500D02*
D03*
X94000Y-9000D02*
D03*
X164000Y-4500D02*
D03*
Y-13000D02*
D03*
X25500Y-84000D02*
D03*
X77500Y-69500D02*
D03*
X82000Y-74500D02*
D03*
X84000Y-65000D02*
D03*
X99500Y-95500D02*
D03*
X110500Y-41500D02*
D03*
X76000Y-85000D02*
D03*
X98500Y-73500D02*
D03*
X80500Y-33500D02*
D03*
X100500Y-27000D02*
D03*
X17000Y-64000D02*
D03*
X38500Y-42000D02*
D03*
X19500Y-91500D02*
D03*
X60500Y-92000D02*
D03*
X82000Y-99000D02*
D03*
X92500Y-24500D02*
D03*
X161000Y-17500D02*
D03*
X162378Y-22500D02*
D03*
X48000Y-50500D02*
D03*
X203500Y-24000D02*
D03*
X75000Y-102500D02*
D03*
X50500Y-93500D02*
D03*
X115500Y-55500D02*
D03*
X56500Y-74000D02*
D03*
X36500Y-55500D02*
D03*
X97500Y-101000D02*
D03*
X64500Y-9000D02*
D03*
X27500Y-8500D02*
D03*
X25500Y-32500D02*
D03*
M02*
