G04*
G04 #@! TF.GenerationSoftware,Altium Limited,Altium Designer,21.5.1 (32)*
G04*
G04 Layer_Color=16711935*
%FSLAX25Y25*%
%MOIN*%
G70*
G04*
G04 #@! TF.SameCoordinates,8A425D5F-BF34-4987-8E10-FF1777C96443*
G04*
G04*
G04 #@! TF.FilePolarity,Negative*
G04*
G01*
G75*
%ADD16C,0.01000*%
%ADD32R,0.04737X0.04343*%
%ADD38R,0.05918X0.06902*%
%ADD43C,0.07099*%
%ADD44R,0.07099X0.07099*%
%ADD45R,0.07099X0.07099*%
%ADD46C,0.13800*%
%ADD47C,0.03950*%
D16*
X0Y-107106D02*
Y0D01*
X248500D01*
Y-107106D02*
Y0D01*
X0Y-107106D02*
X248500D01*
D32*
X118000Y-46350D02*
D03*
Y-52650D02*
D03*
X133000Y-97650D02*
D03*
Y-91350D02*
D03*
X191500Y-44350D02*
D03*
Y-50650D02*
D03*
X28000Y-96799D02*
D03*
Y-90500D02*
D03*
X59000Y-71650D02*
D03*
Y-65350D02*
D03*
X84000Y-66850D02*
D03*
Y-73150D02*
D03*
D38*
X85063Y-100500D02*
D03*
X92937D02*
D03*
D43*
X239000Y-98500D02*
D03*
X195000Y-68000D02*
D03*
X6000Y-70000D02*
D03*
X17000Y-33500D02*
D03*
Y-43500D02*
D03*
X129000Y-16500D02*
D03*
X119000D02*
D03*
D44*
X239000Y-88500D02*
D03*
X6000Y-80000D02*
D03*
X17000Y-23500D02*
D03*
D45*
X205000Y-68000D02*
D03*
X139000Y-16500D02*
D03*
D46*
X9500Y-98000D02*
D03*
X236221Y-11811D02*
D03*
D47*
X173000Y-73756D02*
D03*
X214500Y-82000D02*
D03*
X135000Y-99000D02*
D03*
X150000Y-27000D02*
D03*
X118000Y-44000D02*
D03*
X130000Y-90500D02*
D03*
X149500Y-80000D02*
D03*
X165000Y-30000D02*
D03*
X160000Y-75000D02*
D03*
X147000Y-90000D02*
D03*
X182000Y-104000D02*
D03*
X216000Y-101000D02*
D03*
X207000Y-87000D02*
D03*
X225000Y-92500D02*
D03*
X198000Y-46000D02*
D03*
X180000Y-70500D02*
D03*
X214500Y-64000D02*
D03*
X244500Y-58500D02*
D03*
X191000Y-53500D02*
D03*
X173000Y-41500D02*
D03*
X239000Y-36500D02*
D03*
X178000Y-30000D02*
D03*
X99500Y-15500D02*
D03*
X94000Y-9000D02*
D03*
X164000Y-4500D02*
D03*
Y-13000D02*
D03*
X25500Y-84000D02*
D03*
X77500Y-69500D02*
D03*
X82000Y-74500D02*
D03*
X84000Y-65000D02*
D03*
X99500Y-95500D02*
D03*
X110500Y-41500D02*
D03*
X76000Y-85000D02*
D03*
X98500Y-73500D02*
D03*
X80500Y-33500D02*
D03*
X100500Y-27000D02*
D03*
X17000Y-64000D02*
D03*
X38500Y-42000D02*
D03*
X19500Y-91500D02*
D03*
X60500Y-92000D02*
D03*
X82000Y-99000D02*
D03*
X92500Y-24500D02*
D03*
X161000Y-17500D02*
D03*
X162378Y-22500D02*
D03*
X48000Y-50500D02*
D03*
X203500Y-24000D02*
D03*
X75000Y-102500D02*
D03*
X50500Y-93500D02*
D03*
X115500Y-55500D02*
D03*
X56500Y-74000D02*
D03*
X36500Y-55500D02*
D03*
X97500Y-101000D02*
D03*
X64500Y-9000D02*
D03*
X27500Y-8500D02*
D03*
X25500Y-32500D02*
D03*
M02*
