G04*
G04 #@! TF.GenerationSoftware,Altium Limited,Altium Designer,21.5.1 (32)*
G04*
G04 Layer_Physical_Order=1*
G04 Layer_Color=255*
%FSLAX25Y25*%
%MOIN*%
G70*
G04*
G04 #@! TF.SameCoordinates,8A425D5F-BF34-4987-8E10-FF1777C96443*
G04*
G04*
G04 #@! TF.FilePolarity,Positive*
G04*
G01*
G75*
%ADD16C,0.01000*%
G04:AMPARAMS|DCode=17|XSize=25.59mil|YSize=64.96mil|CornerRadius=1.92mil|HoleSize=0mil|Usage=FLASHONLY|Rotation=90.000|XOffset=0mil|YOffset=0mil|HoleType=Round|Shape=RoundedRectangle|*
%AMROUNDEDRECTD17*
21,1,0.02559,0.06112,0,0,90.0*
21,1,0.02175,0.06496,0,0,90.0*
1,1,0.00384,0.03056,0.01088*
1,1,0.00384,0.03056,-0.01088*
1,1,0.00384,-0.03056,-0.01088*
1,1,0.00384,-0.03056,0.01088*
%
%ADD17ROUNDEDRECTD17*%
%ADD18R,0.05709X0.04724*%
%ADD19R,0.03937X0.03543*%
%ADD20R,0.04724X0.05709*%
%ADD21R,0.03937X0.03937*%
%ADD22C,0.03937*%
%ADD23R,0.07087X0.04528*%
%ADD24R,0.04528X0.07087*%
%ADD25R,0.05118X0.06102*%
%ADD26R,0.05315X0.07480*%
%ADD27R,0.07480X0.05315*%
%ADD28R,0.06102X0.05118*%
%ADD29R,0.03543X0.03937*%
%ADD48C,0.01400*%
%ADD49C,0.06299*%
%ADD50R,0.06299X0.06299*%
%ADD51R,0.06299X0.06299*%
%ADD52C,0.13000*%
%ADD53C,0.03150*%
G36*
X248500Y-107106D02*
X0D01*
Y0D01*
X248500D01*
Y-107106D01*
D02*
G37*
%LPC*%
G36*
X164500Y-1969D02*
Y-4000D01*
X166531D01*
X166508Y-3828D01*
X166249Y-3201D01*
X165836Y-2664D01*
X165298Y-2251D01*
X164672Y-1991D01*
X164500Y-1969D01*
D02*
G37*
G36*
X68000Y-2471D02*
X32000D01*
X31415Y-2587D01*
X30919Y-2919D01*
X27716Y-6121D01*
X27500Y-6079D01*
X26986Y-6181D01*
X26599Y-5864D01*
Y-4846D01*
X20275D01*
Y-12154D01*
X26599D01*
Y-11136D01*
X26986Y-10819D01*
X27500Y-10921D01*
X28427Y-10737D01*
X29212Y-10212D01*
X29737Y-9427D01*
X29921Y-8500D01*
X29878Y-8284D01*
X32634Y-5529D01*
X67366D01*
X82419Y-20581D01*
X82915Y-20913D01*
X83500Y-21029D01*
X106000D01*
X106585Y-20913D01*
X107081Y-20581D01*
X109231Y-18432D01*
X109563Y-17936D01*
X109679Y-17350D01*
Y-17268D01*
X110721D01*
Y-15529D01*
X114765D01*
X115095Y-15905D01*
X115016Y-16500D01*
X115152Y-17531D01*
X115550Y-18492D01*
X116183Y-19317D01*
X117008Y-19950D01*
X117969Y-20348D01*
X119000Y-20484D01*
X120031Y-20348D01*
X120992Y-19950D01*
X121817Y-19317D01*
X122450Y-18492D01*
X122848Y-17531D01*
X122984Y-16500D01*
X122848Y-15469D01*
X122450Y-14508D01*
X121817Y-13683D01*
X120992Y-13050D01*
X120031Y-12652D01*
X119000Y-12516D01*
X117969Y-12652D01*
X117483Y-12853D01*
X117085Y-12587D01*
X116500Y-12471D01*
X112469D01*
Y-4157D01*
X106342D01*
Y-11732D01*
X105578D01*
Y-17268D01*
X105578D01*
X105722Y-17616D01*
X105367Y-17971D01*
X101944D01*
X101687Y-17471D01*
X101689Y-17469D01*
X104622D01*
Y-15000D01*
X101850D01*
Y-14500D01*
X101350D01*
Y-11531D01*
X100858D01*
Y-9000D01*
X97594D01*
Y-8500D01*
X97095D01*
Y-3957D01*
X94331D01*
Y-6113D01*
X94000Y-6403D01*
X93328Y-6492D01*
X92702Y-6751D01*
X92164Y-7164D01*
X91751Y-7701D01*
X91492Y-8328D01*
X91469Y-8500D01*
X94000D01*
Y-9500D01*
X91469D01*
X91492Y-9672D01*
X91751Y-10299D01*
X92164Y-10836D01*
X92702Y-11249D01*
X93328Y-11508D01*
X94000Y-11597D01*
X94331Y-11887D01*
Y-13043D01*
X97651D01*
X97821Y-13543D01*
X97664Y-13664D01*
X97251Y-14201D01*
X96991Y-14828D01*
X96969Y-15000D01*
X99500D01*
Y-16000D01*
X96969D01*
X96991Y-16172D01*
X97251Y-16799D01*
X97664Y-17336D01*
X97839Y-17471D01*
X97669Y-17971D01*
X84133D01*
X69081Y-2919D01*
X68585Y-2587D01*
X68000Y-2471D01*
D02*
G37*
G36*
X100858Y-3957D02*
X98094D01*
Y-8000D01*
X100858D01*
Y-3957D01*
D02*
G37*
G36*
X163500Y-1969D02*
X163328Y-1991D01*
X162701Y-2251D01*
X162164Y-2664D01*
X161751Y-3201D01*
X161492Y-3828D01*
X161409Y-4457D01*
X161406D01*
Y-8500D01*
X164169D01*
Y-7075D01*
X164672Y-7008D01*
X165298Y-6749D01*
X165836Y-6336D01*
X166249Y-5799D01*
X166508Y-5172D01*
X166531Y-5000D01*
X164000D01*
Y-4500D01*
X163500D01*
Y-1969D01*
D02*
G37*
G36*
X160406Y-4457D02*
X157642D01*
Y-8500D01*
X160406D01*
Y-4457D01*
D02*
G37*
G36*
X65000Y-6469D02*
Y-9000D01*
X64000D01*
Y-6469D01*
X63828Y-6492D01*
X63201Y-6751D01*
X62664Y-7164D01*
X62251Y-7701D01*
X61992Y-8328D01*
X61968Y-8504D01*
X60449D01*
Y-11563D01*
X64500D01*
X68551D01*
Y-8504D01*
X67032D01*
X67009Y-8328D01*
X66749Y-7701D01*
X66336Y-7164D01*
X65798Y-6751D01*
X65172Y-6492D01*
X65000Y-6469D01*
D02*
G37*
G36*
X104622Y-11531D02*
X102350D01*
Y-14000D01*
X104622D01*
Y-11531D01*
D02*
G37*
G36*
X152158Y-4657D02*
X146031D01*
Y-13343D01*
X146641D01*
Y-14696D01*
X146367Y-14971D01*
X142950D01*
Y-12550D01*
X135050D01*
Y-20450D01*
X142950D01*
Y-18029D01*
X146641D01*
Y-19351D01*
X148471D01*
Y-25166D01*
X148288Y-25288D01*
X147763Y-26073D01*
X147579Y-27000D01*
X147763Y-27927D01*
X147822Y-28015D01*
X143067Y-32771D01*
X96434D01*
X90517Y-26854D01*
X90847Y-26477D01*
X90869Y-26494D01*
X91202Y-26749D01*
X91828Y-27009D01*
X92000Y-27031D01*
Y-25000D01*
X89969D01*
X89991Y-25172D01*
X90251Y-25798D01*
X90506Y-26131D01*
X90523Y-26153D01*
X90146Y-26483D01*
X87881Y-24219D01*
X87385Y-23887D01*
X86800Y-23771D01*
X70433D01*
X68351Y-21688D01*
Y-16578D01*
X60649D01*
Y-20971D01*
X58076D01*
X57893Y-20697D01*
X57565Y-20478D01*
X57178Y-20401D01*
X51066D01*
X50679Y-20478D01*
X50351Y-20697D01*
X50132Y-21025D01*
X50055Y-21412D01*
Y-23588D01*
X50132Y-23975D01*
X50351Y-24303D01*
X50679Y-24522D01*
X51066Y-24599D01*
X57178D01*
X57565Y-24522D01*
X57893Y-24303D01*
X58076Y-24029D01*
X61937D01*
X62522Y-23913D01*
X63018Y-23581D01*
X63304Y-23296D01*
X65633D01*
X67846Y-25509D01*
X67654Y-25971D01*
X58076D01*
X57893Y-25697D01*
X57565Y-25478D01*
X57178Y-25401D01*
X51066D01*
X50679Y-25478D01*
X50351Y-25697D01*
X50168Y-25971D01*
X44133D01*
X39581Y-21419D01*
X39085Y-21087D01*
X38500Y-20971D01*
X35832D01*
X35649Y-20697D01*
X35321Y-20478D01*
X34934Y-20401D01*
X28822D01*
X28435Y-20478D01*
X28107Y-20697D01*
X27887Y-21025D01*
X27810Y-21412D01*
Y-23588D01*
X27887Y-23975D01*
X28107Y-24303D01*
X28435Y-24522D01*
X28822Y-24599D01*
X34934D01*
X35321Y-24522D01*
X35649Y-24303D01*
X35832Y-24029D01*
X37867D01*
X42419Y-28581D01*
X42915Y-28913D01*
X43500Y-29029D01*
X50168D01*
X50351Y-29303D01*
X50679Y-29522D01*
X51066Y-29599D01*
X57178D01*
X57565Y-29522D01*
X57893Y-29303D01*
X58076Y-29029D01*
X84866D01*
X93419Y-37581D01*
X93915Y-37913D01*
X94500Y-38029D01*
X186401D01*
Y-38154D01*
X192725D01*
Y-30846D01*
X186401D01*
Y-34971D01*
X145846D01*
X145654Y-34509D01*
X150926Y-29237D01*
X150927Y-29237D01*
X151712Y-28712D01*
X152237Y-27927D01*
X152421Y-27000D01*
X152237Y-26073D01*
X151712Y-25288D01*
X151529Y-25166D01*
Y-19351D01*
X153359D01*
Y-11649D01*
X152158D01*
Y-4657D01*
D02*
G37*
G36*
X166531Y-13500D02*
X164500D01*
Y-15531D01*
X164672Y-15508D01*
X165298Y-15249D01*
X165836Y-14836D01*
X166249Y-14299D01*
X166508Y-13672D01*
X166531Y-13500D01*
D02*
G37*
G36*
X164169Y-9500D02*
X160906D01*
X157642D01*
Y-11449D01*
X154315D01*
Y-15000D01*
X157874D01*
Y-15500D01*
X158374D01*
Y-19551D01*
X159444D01*
X159702Y-19749D01*
X160328Y-20008D01*
X160538Y-20036D01*
X160678Y-20559D01*
X160542Y-20664D01*
X160129Y-21202D01*
X159869Y-21828D01*
X159847Y-22000D01*
X164909D01*
X164886Y-21828D01*
X164627Y-21202D01*
X164214Y-20664D01*
X163677Y-20251D01*
X163050Y-19992D01*
X162840Y-19964D01*
X162700Y-19441D01*
X162836Y-19336D01*
X163249Y-18799D01*
X163508Y-18172D01*
X163531Y-18000D01*
X161000D01*
Y-17000D01*
X163531D01*
X163508Y-16828D01*
X163249Y-16202D01*
X163042Y-15931D01*
X163294Y-15558D01*
X163350Y-15511D01*
X163500Y-15531D01*
Y-13000D01*
X164000D01*
Y-12500D01*
X166531D01*
X166508Y-12328D01*
X166249Y-11701D01*
X165836Y-11164D01*
X165298Y-10751D01*
X164672Y-10492D01*
X164169Y-10425D01*
Y-9500D01*
D02*
G37*
G36*
X68551Y-12563D02*
X65000D01*
Y-15622D01*
X68551D01*
Y-12563D01*
D02*
G37*
G36*
X64000D02*
X60449D01*
Y-15622D01*
X64000D01*
Y-12563D01*
D02*
G37*
G36*
X129500Y-12380D02*
Y-16000D01*
X133120D01*
X133043Y-15417D01*
X132625Y-14407D01*
X131959Y-13541D01*
X131093Y-12875D01*
X130083Y-12457D01*
X129500Y-12380D01*
D02*
G37*
G36*
X128500D02*
X127917Y-12457D01*
X126907Y-12875D01*
X126040Y-13541D01*
X125375Y-14407D01*
X124957Y-15417D01*
X124880Y-16000D01*
X128500D01*
Y-12380D01*
D02*
G37*
G36*
X236221Y-4074D02*
X234711Y-4222D01*
X233260Y-4663D01*
X231922Y-5378D01*
X230749Y-6340D01*
X229787Y-7512D01*
X229072Y-8850D01*
X228632Y-10302D01*
X228483Y-11811D01*
X228632Y-13320D01*
X229072Y-14772D01*
X229787Y-16110D01*
X230749Y-17282D01*
X231922Y-18244D01*
X233260Y-18959D01*
X234711Y-19400D01*
X236221Y-19548D01*
X237730Y-19400D01*
X239181Y-18959D01*
X240519Y-18244D01*
X241691Y-17282D01*
X242654Y-16110D01*
X243369Y-14772D01*
X243809Y-13320D01*
X243958Y-11811D01*
X243809Y-10302D01*
X243369Y-8850D01*
X242654Y-7512D01*
X241691Y-6340D01*
X240519Y-5378D01*
X239181Y-4663D01*
X237730Y-4222D01*
X236221Y-4074D01*
D02*
G37*
G36*
X157374Y-16000D02*
X154315D01*
Y-19551D01*
X157374D01*
Y-16000D01*
D02*
G37*
G36*
X57178Y-15401D02*
X51066D01*
X50679Y-15478D01*
X50351Y-15697D01*
X50132Y-16025D01*
X50055Y-16412D01*
Y-18588D01*
X50132Y-18975D01*
X50351Y-19303D01*
X50679Y-19522D01*
X51066Y-19599D01*
X57178D01*
X57565Y-19522D01*
X57893Y-19303D01*
X58113Y-18975D01*
X58189Y-18588D01*
Y-16412D01*
X58113Y-16025D01*
X57893Y-15697D01*
X57565Y-15478D01*
X57178Y-15401D01*
D02*
G37*
G36*
X34934D02*
X28822D01*
X28435Y-15478D01*
X28107Y-15697D01*
X27887Y-16025D01*
X27810Y-16412D01*
Y-18588D01*
X27887Y-18975D01*
X28107Y-19303D01*
X28435Y-19522D01*
X28822Y-19599D01*
X34934D01*
X35321Y-19522D01*
X35649Y-19303D01*
X35868Y-18975D01*
X35945Y-18588D01*
Y-16412D01*
X35868Y-16025D01*
X35649Y-15697D01*
X35321Y-15478D01*
X34934Y-15401D01*
D02*
G37*
G36*
X133120Y-17000D02*
X129500D01*
Y-20620D01*
X130083Y-20543D01*
X131093Y-20125D01*
X131959Y-19459D01*
X132625Y-18593D01*
X133043Y-17583D01*
X133120Y-17000D01*
D02*
G37*
G36*
X128500D02*
X124880D01*
X124957Y-17583D01*
X125375Y-18593D01*
X126040Y-19459D01*
X126907Y-20125D01*
X127917Y-20543D01*
X128500Y-20620D01*
Y-17000D01*
D02*
G37*
G36*
X204000Y-21469D02*
Y-23500D01*
X206031D01*
X206009Y-23328D01*
X205749Y-22702D01*
X205336Y-22164D01*
X204799Y-21751D01*
X204172Y-21492D01*
X204000Y-21469D01*
D02*
G37*
G36*
X203000D02*
X202828Y-21492D01*
X202202Y-21751D01*
X201664Y-22164D01*
X201251Y-22702D01*
X200992Y-23328D01*
X200969Y-23500D01*
X203000D01*
Y-21469D01*
D02*
G37*
G36*
X93000Y-21969D02*
Y-24000D01*
X95031D01*
X95008Y-23828D01*
X94749Y-23201D01*
X94336Y-22664D01*
X93799Y-22251D01*
X93172Y-21992D01*
X93000Y-21969D01*
D02*
G37*
G36*
X92000D02*
X91828Y-21992D01*
X91202Y-22251D01*
X90664Y-22664D01*
X90251Y-23201D01*
X89991Y-23828D01*
X89969Y-24000D01*
X92000D01*
Y-21969D01*
D02*
G37*
G36*
X164909Y-23000D02*
X162878D01*
Y-25031D01*
X163050Y-25008D01*
X163677Y-24749D01*
X164214Y-24336D01*
X164627Y-23799D01*
X164886Y-23172D01*
X164909Y-23000D01*
D02*
G37*
G36*
X161878D02*
X159847D01*
X159869Y-23172D01*
X160129Y-23799D01*
X160542Y-24336D01*
X161079Y-24749D01*
X161706Y-25008D01*
X161878Y-25031D01*
Y-23000D01*
D02*
G37*
G36*
X101000Y-24469D02*
Y-26500D01*
X103031D01*
X103008Y-26328D01*
X102749Y-25701D01*
X102336Y-25164D01*
X101798Y-24751D01*
X101172Y-24491D01*
X101000Y-24469D01*
D02*
G37*
G36*
X100000D02*
X99828Y-24491D01*
X99202Y-24751D01*
X98664Y-25164D01*
X98251Y-25701D01*
X97992Y-26328D01*
X97969Y-26500D01*
X100000D01*
Y-24469D01*
D02*
G37*
G36*
X206031Y-24500D02*
X204000D01*
Y-26531D01*
X204172Y-26509D01*
X204799Y-26249D01*
X205336Y-25836D01*
X205749Y-25299D01*
X206009Y-24672D01*
X206031Y-24500D01*
D02*
G37*
G36*
X203000D02*
X200969D01*
X200992Y-24672D01*
X201251Y-25299D01*
X201664Y-25836D01*
X202202Y-26249D01*
X202828Y-26509D01*
X203000Y-26531D01*
Y-24500D01*
D02*
G37*
G36*
X95031Y-25000D02*
X93000D01*
Y-27031D01*
X93172Y-27009D01*
X93799Y-26749D01*
X94336Y-26336D01*
X94749Y-25798D01*
X95008Y-25172D01*
X95031Y-25000D01*
D02*
G37*
G36*
X18725Y-4846D02*
X12401D01*
Y-12154D01*
X15471D01*
Y-19550D01*
X13050D01*
Y-27450D01*
X20950D01*
Y-19550D01*
X18529D01*
Y-12154D01*
X18725D01*
Y-4846D01*
D02*
G37*
G36*
X178500Y-27469D02*
Y-29500D01*
X180531D01*
X180508Y-29328D01*
X180249Y-28701D01*
X179836Y-28164D01*
X179298Y-27751D01*
X178672Y-27492D01*
X178500Y-27469D01*
D02*
G37*
G36*
X177500D02*
X177328Y-27492D01*
X176701Y-27751D01*
X176164Y-28164D01*
X175751Y-28701D01*
X175491Y-29328D01*
X175469Y-29500D01*
X177500D01*
Y-27469D01*
D02*
G37*
G36*
X165500D02*
Y-29500D01*
X167531D01*
X167508Y-29328D01*
X167249Y-28701D01*
X166836Y-28164D01*
X166298Y-27751D01*
X165672Y-27492D01*
X165500Y-27469D01*
D02*
G37*
G36*
X164500D02*
X164328Y-27492D01*
X163701Y-27751D01*
X163164Y-28164D01*
X162751Y-28701D01*
X162492Y-29328D01*
X162469Y-29500D01*
X164500D01*
Y-27469D01*
D02*
G37*
G36*
X103031Y-27500D02*
X101000D01*
Y-29531D01*
X101172Y-29509D01*
X101798Y-29249D01*
X102336Y-28836D01*
X102749Y-28299D01*
X103008Y-27672D01*
X103031Y-27500D01*
D02*
G37*
G36*
X100000D02*
X97969D01*
X97992Y-27672D01*
X98251Y-28299D01*
X98664Y-28836D01*
X99202Y-29249D01*
X99828Y-29509D01*
X100000Y-29531D01*
Y-27500D01*
D02*
G37*
G36*
X34934Y-25401D02*
X28822D01*
X28435Y-25478D01*
X28107Y-25697D01*
X27924Y-25971D01*
X24000D01*
X23415Y-26087D01*
X22919Y-26419D01*
X19159Y-30178D01*
X18992Y-30050D01*
X18031Y-29652D01*
X17000Y-29516D01*
X15969Y-29652D01*
X15008Y-30050D01*
X14183Y-30683D01*
X13550Y-31508D01*
X13152Y-32469D01*
X13016Y-33500D01*
X13152Y-34531D01*
X13550Y-35492D01*
X14183Y-36317D01*
X15008Y-36950D01*
X15969Y-37348D01*
X17000Y-37484D01*
X18031Y-37348D01*
X18992Y-36950D01*
X19817Y-36317D01*
X20450Y-35492D01*
X20848Y-34531D01*
X20984Y-33500D01*
X20888Y-32775D01*
X24633Y-29029D01*
X27924D01*
X28107Y-29303D01*
X28435Y-29522D01*
X28822Y-29599D01*
X34934D01*
X35321Y-29522D01*
X35649Y-29303D01*
X35868Y-28975D01*
X35945Y-28588D01*
Y-26412D01*
X35868Y-26025D01*
X35649Y-25697D01*
X35321Y-25478D01*
X34934Y-25401D01*
D02*
G37*
G36*
X180531Y-30500D02*
X178500D01*
Y-32531D01*
X178672Y-32509D01*
X179298Y-32249D01*
X179836Y-31836D01*
X180249Y-31299D01*
X180508Y-30672D01*
X180531Y-30500D01*
D02*
G37*
G36*
X177500D02*
X175469D01*
X175491Y-30672D01*
X175751Y-31299D01*
X176164Y-31836D01*
X176701Y-32249D01*
X177328Y-32509D01*
X177500Y-32531D01*
Y-30500D01*
D02*
G37*
G36*
X167531D02*
X165500D01*
Y-32531D01*
X165672Y-32509D01*
X166298Y-32249D01*
X166836Y-31836D01*
X167249Y-31299D01*
X167508Y-30672D01*
X167531Y-30500D01*
D02*
G37*
G36*
X164500D02*
X162469D01*
X162492Y-30672D01*
X162751Y-31299D01*
X163164Y-31836D01*
X163701Y-32249D01*
X164328Y-32509D01*
X164500Y-32531D01*
Y-30500D01*
D02*
G37*
G36*
X81000Y-30969D02*
Y-33000D01*
X83031D01*
X83008Y-32828D01*
X82749Y-32201D01*
X82336Y-31664D01*
X81798Y-31251D01*
X81172Y-30992D01*
X81000Y-30969D01*
D02*
G37*
G36*
X80000D02*
X79828Y-30992D01*
X79202Y-31251D01*
X78664Y-31664D01*
X78251Y-32201D01*
X77991Y-32828D01*
X77969Y-33000D01*
X80000D01*
Y-30969D01*
D02*
G37*
G36*
X57178Y-30401D02*
X51066D01*
X50679Y-30478D01*
X50351Y-30697D01*
X50132Y-31025D01*
X50055Y-31412D01*
Y-33588D01*
X50132Y-33975D01*
X50351Y-34303D01*
X50679Y-34522D01*
X51066Y-34599D01*
X57178D01*
X57565Y-34522D01*
X57893Y-34303D01*
X58113Y-33975D01*
X58189Y-33588D01*
Y-31412D01*
X58113Y-31025D01*
X57893Y-30697D01*
X57565Y-30478D01*
X57178Y-30401D01*
D02*
G37*
G36*
X25500Y-30079D02*
X24573Y-30263D01*
X23788Y-30788D01*
X23263Y-31573D01*
X23079Y-32500D01*
X23263Y-33427D01*
X23788Y-34212D01*
X24573Y-34737D01*
X25500Y-34921D01*
X26427Y-34737D01*
X27212Y-34212D01*
X27334Y-34029D01*
X27924D01*
X28107Y-34303D01*
X28435Y-34522D01*
X28822Y-34599D01*
X34934D01*
X35321Y-34522D01*
X35649Y-34303D01*
X35868Y-33975D01*
X35945Y-33588D01*
Y-31412D01*
X35868Y-31025D01*
X35649Y-30697D01*
X35321Y-30478D01*
X34934Y-30401D01*
X28822D01*
X28435Y-30478D01*
X28107Y-30697D01*
X27924Y-30971D01*
X27334D01*
X27212Y-30788D01*
X26427Y-30263D01*
X25500Y-30079D01*
D02*
G37*
G36*
X239500Y-33969D02*
Y-36000D01*
X241531D01*
X241509Y-35828D01*
X241249Y-35201D01*
X240836Y-34664D01*
X240299Y-34251D01*
X239672Y-33992D01*
X239500Y-33969D01*
D02*
G37*
G36*
X238500D02*
X238328Y-33992D01*
X237702Y-34251D01*
X237164Y-34664D01*
X236751Y-35201D01*
X236491Y-35828D01*
X236469Y-36000D01*
X238500D01*
Y-33969D01*
D02*
G37*
G36*
X83031Y-34000D02*
X81000D01*
Y-36031D01*
X81172Y-36009D01*
X81798Y-35749D01*
X82336Y-35336D01*
X82749Y-34798D01*
X83008Y-34172D01*
X83031Y-34000D01*
D02*
G37*
G36*
X80000D02*
X77969D01*
X77991Y-34172D01*
X78251Y-34798D01*
X78664Y-35336D01*
X79202Y-35749D01*
X79828Y-36009D01*
X80000Y-36031D01*
Y-34000D01*
D02*
G37*
G36*
X241531Y-37000D02*
X239500D01*
Y-39031D01*
X239672Y-39009D01*
X240299Y-38749D01*
X240836Y-38336D01*
X241249Y-37799D01*
X241509Y-37172D01*
X241531Y-37000D01*
D02*
G37*
G36*
X238500D02*
X236469D01*
X236491Y-37172D01*
X236751Y-37799D01*
X237164Y-38336D01*
X237702Y-38749D01*
X238328Y-39009D01*
X238500Y-39031D01*
Y-37000D01*
D02*
G37*
G36*
X173500Y-38969D02*
Y-41000D01*
X175531D01*
X175508Y-40828D01*
X175249Y-40202D01*
X174836Y-39664D01*
X174299Y-39251D01*
X173672Y-38991D01*
X173500Y-38969D01*
D02*
G37*
G36*
X172500D02*
X172328Y-38991D01*
X171702Y-39251D01*
X171164Y-39664D01*
X170751Y-40202D01*
X170492Y-40828D01*
X170469Y-41000D01*
X172500D01*
Y-38969D01*
D02*
G37*
G36*
X111000D02*
Y-41000D01*
X113031D01*
X113008Y-40828D01*
X112749Y-40202D01*
X112336Y-39664D01*
X111799Y-39251D01*
X111172Y-38991D01*
X111000Y-38969D01*
D02*
G37*
G36*
X110000D02*
X109828Y-38991D01*
X109202Y-39251D01*
X108664Y-39664D01*
X108251Y-40202D01*
X107992Y-40828D01*
X107969Y-41000D01*
X110000D01*
Y-38969D01*
D02*
G37*
G36*
X39000Y-39469D02*
Y-41500D01*
X41031D01*
X41008Y-41328D01*
X40749Y-40701D01*
X40336Y-40164D01*
X39799Y-39751D01*
X39172Y-39492D01*
X39000Y-39469D01*
D02*
G37*
G36*
X38000D02*
X37828Y-39492D01*
X37201Y-39751D01*
X36664Y-40164D01*
X36251Y-40701D01*
X35991Y-41328D01*
X35969Y-41500D01*
X38000D01*
Y-39469D01*
D02*
G37*
G36*
X118500Y-41469D02*
Y-43500D01*
X120531D01*
X120509Y-43328D01*
X120249Y-42702D01*
X119836Y-42164D01*
X119299Y-41751D01*
X118672Y-41491D01*
X118500Y-41469D01*
D02*
G37*
G36*
X117500D02*
X117328Y-41491D01*
X116701Y-41751D01*
X116164Y-42164D01*
X115751Y-42702D01*
X115491Y-43328D01*
X115469Y-43500D01*
X117500D01*
Y-41469D01*
D02*
G37*
G36*
X175531Y-42000D02*
X173500D01*
Y-44031D01*
X173672Y-44008D01*
X174299Y-43749D01*
X174836Y-43336D01*
X175249Y-42799D01*
X175508Y-42172D01*
X175531Y-42000D01*
D02*
G37*
G36*
X172500D02*
X170469D01*
X170492Y-42172D01*
X170751Y-42799D01*
X171164Y-43336D01*
X171702Y-43749D01*
X172328Y-44008D01*
X172500Y-44031D01*
Y-42000D01*
D02*
G37*
G36*
X113031D02*
X111000D01*
Y-44031D01*
X111172Y-44008D01*
X111799Y-43749D01*
X112336Y-43336D01*
X112749Y-42799D01*
X113008Y-42172D01*
X113031Y-42000D01*
D02*
G37*
G36*
X110000D02*
X107969D01*
X107992Y-42172D01*
X108251Y-42799D01*
X108664Y-43336D01*
X109202Y-43749D01*
X109828Y-44008D01*
X110000Y-44031D01*
Y-42000D01*
D02*
G37*
G36*
X41031Y-42500D02*
X39000D01*
Y-44531D01*
X39172Y-44508D01*
X39799Y-44249D01*
X40336Y-43836D01*
X40749Y-43299D01*
X41008Y-42672D01*
X41031Y-42500D01*
D02*
G37*
G36*
X38000D02*
X35969D01*
X35991Y-42672D01*
X36251Y-43299D01*
X36664Y-43836D01*
X37201Y-44249D01*
X37828Y-44508D01*
X38000Y-44531D01*
Y-42500D01*
D02*
G37*
G36*
X198500Y-43469D02*
Y-45500D01*
X200531D01*
X200508Y-45328D01*
X200249Y-44701D01*
X199836Y-44164D01*
X199299Y-43751D01*
X198672Y-43492D01*
X198500Y-43469D01*
D02*
G37*
G36*
X197500D02*
X197328Y-43492D01*
X196702Y-43751D01*
X196164Y-44164D01*
X195751Y-44701D01*
X195492Y-45328D01*
X195469Y-45500D01*
X197500D01*
Y-43469D01*
D02*
G37*
G36*
X120531Y-44500D02*
X118500D01*
Y-46531D01*
X118672Y-46508D01*
X119299Y-46249D01*
X119836Y-45836D01*
X120249Y-45298D01*
X120509Y-44672D01*
X120531Y-44500D01*
D02*
G37*
G36*
X117500D02*
X115469D01*
X115491Y-44672D01*
X115751Y-45298D01*
X116164Y-45836D01*
X116701Y-46249D01*
X117328Y-46508D01*
X117500Y-46531D01*
Y-44500D01*
D02*
G37*
G36*
X200531Y-46500D02*
X198500D01*
Y-48531D01*
X198672Y-48509D01*
X199299Y-48249D01*
X199836Y-47836D01*
X200249Y-47298D01*
X200508Y-46672D01*
X200531Y-46500D01*
D02*
G37*
G36*
X197500D02*
X195469D01*
X195492Y-46672D01*
X195751Y-47298D01*
X196164Y-47836D01*
X196702Y-48249D01*
X197328Y-48509D01*
X197500Y-48531D01*
Y-46500D01*
D02*
G37*
G36*
X48500Y-47969D02*
Y-50000D01*
X50531D01*
X50508Y-49828D01*
X50249Y-49202D01*
X49836Y-48664D01*
X49299Y-48251D01*
X48672Y-47991D01*
X48500Y-47969D01*
D02*
G37*
G36*
X47500D02*
X47328Y-47991D01*
X46701Y-48251D01*
X46164Y-48664D01*
X45751Y-49202D01*
X45491Y-49828D01*
X45469Y-50000D01*
X47500D01*
Y-47969D01*
D02*
G37*
G36*
X187678Y-46401D02*
X181566D01*
X181179Y-46478D01*
X180851Y-46697D01*
X180632Y-47025D01*
X180555Y-47412D01*
Y-49588D01*
X180632Y-49975D01*
X180851Y-50303D01*
X181179Y-50522D01*
X181566Y-50599D01*
X187678D01*
X188065Y-50522D01*
X188393Y-50303D01*
X188612Y-49975D01*
X188689Y-49588D01*
Y-47412D01*
X188612Y-47025D01*
X188393Y-46697D01*
X188065Y-46478D01*
X187678Y-46401D01*
D02*
G37*
G36*
X154969Y-43657D02*
X148842D01*
Y-52343D01*
X154969D01*
Y-52285D01*
X155431Y-52094D01*
X157339Y-54002D01*
X157835Y-54333D01*
X158310Y-54428D01*
Y-54588D01*
X158387Y-54975D01*
X158607Y-55303D01*
X158935Y-55522D01*
X159322Y-55599D01*
X165434D01*
X165821Y-55522D01*
X166149Y-55303D01*
X166332Y-55029D01*
X170367D01*
X174919Y-59581D01*
X175415Y-59913D01*
X176000Y-60029D01*
X180668D01*
X180851Y-60303D01*
X181179Y-60522D01*
X181566Y-60599D01*
X187678D01*
X188065Y-60522D01*
X188393Y-60303D01*
X188576Y-60029D01*
X192901D01*
Y-61855D01*
X193471D01*
Y-64359D01*
X193008Y-64550D01*
X192183Y-65183D01*
X191550Y-66008D01*
X191152Y-66969D01*
X191016Y-68000D01*
X191152Y-69031D01*
X191550Y-69992D01*
X192183Y-70817D01*
X193008Y-71450D01*
X193969Y-71848D01*
X195000Y-71984D01*
X196031Y-71848D01*
X196992Y-71450D01*
X197817Y-70817D01*
X198450Y-69992D01*
X198848Y-69031D01*
X198984Y-68000D01*
X198848Y-66969D01*
X198450Y-66008D01*
X198177Y-65653D01*
X198177Y-65651D01*
X197845Y-65155D01*
X197349Y-64823D01*
X197347Y-64823D01*
X196992Y-64550D01*
X196529Y-64359D01*
Y-61855D01*
X199225D01*
Y-54546D01*
X193712D01*
X193313Y-54046D01*
X193421Y-53500D01*
X193237Y-52573D01*
X192712Y-51788D01*
X191927Y-51263D01*
X191000Y-51079D01*
X190073Y-51263D01*
X189288Y-51788D01*
X189166Y-51971D01*
X188576D01*
X188393Y-51697D01*
X188065Y-51478D01*
X187678Y-51401D01*
X181566D01*
X181179Y-51478D01*
X180851Y-51697D01*
X180632Y-52025D01*
X180555Y-52412D01*
Y-54588D01*
X180632Y-54975D01*
X180851Y-55303D01*
X181179Y-55522D01*
X181566Y-55599D01*
X187678D01*
X188065Y-55522D01*
X188393Y-55303D01*
X188576Y-55029D01*
X189166D01*
X189288Y-55212D01*
X190073Y-55737D01*
X191000Y-55921D01*
X191927Y-55737D01*
X192401Y-55420D01*
X192901Y-55687D01*
Y-56971D01*
X188576D01*
X188393Y-56697D01*
X188065Y-56478D01*
X187678Y-56401D01*
X181566D01*
X181179Y-56478D01*
X180851Y-56697D01*
X180668Y-56971D01*
X176634D01*
X172081Y-52419D01*
X171585Y-52087D01*
X171000Y-51971D01*
X166332D01*
X166149Y-51697D01*
X165821Y-51478D01*
X165434Y-51401D01*
X161848D01*
X161798Y-51391D01*
X159054D01*
X158487Y-50824D01*
X158806Y-50436D01*
X158816Y-50443D01*
X158935Y-50522D01*
X159322Y-50599D01*
X165434D01*
X165821Y-50522D01*
X166149Y-50303D01*
X166368Y-49975D01*
X166445Y-49588D01*
Y-47412D01*
X166368Y-47025D01*
X166149Y-46697D01*
X165821Y-46478D01*
X165434Y-46401D01*
X159322D01*
X158935Y-46478D01*
X158607Y-46697D01*
X158387Y-47025D01*
X158310Y-47412D01*
Y-49588D01*
X158387Y-49975D01*
X158467Y-50093D01*
X158474Y-50104D01*
X158085Y-50423D01*
X155425Y-47762D01*
X154969Y-47458D01*
Y-43657D01*
D02*
G37*
G36*
X113300Y-47401D02*
X107188D01*
X106801Y-47478D01*
X106473Y-47697D01*
X106254Y-48025D01*
X106177Y-48412D01*
Y-50588D01*
X106254Y-50975D01*
X106473Y-51303D01*
X106801Y-51522D01*
X107188Y-51599D01*
X113300D01*
X113687Y-51522D01*
X114015Y-51303D01*
X114235Y-50975D01*
X114312Y-50588D01*
Y-48412D01*
X114235Y-48025D01*
X114015Y-47697D01*
X113687Y-47478D01*
X113300Y-47401D01*
D02*
G37*
G36*
X91056D02*
X84944D01*
X84557Y-47478D01*
X84229Y-47697D01*
X84009Y-48025D01*
X83933Y-48412D01*
Y-50588D01*
X84009Y-50975D01*
X84229Y-51303D01*
X84557Y-51522D01*
X84944Y-51599D01*
X91056D01*
X91443Y-51522D01*
X91771Y-51303D01*
X91991Y-50975D01*
X92067Y-50588D01*
Y-48412D01*
X91991Y-48025D01*
X91771Y-47697D01*
X91443Y-47478D01*
X91056Y-47401D01*
D02*
G37*
G36*
X76599Y-35346D02*
X70275D01*
Y-42654D01*
X76599D01*
Y-40529D01*
X86866D01*
X94471Y-48134D01*
Y-52971D01*
X91954D01*
X91771Y-52697D01*
X91443Y-52478D01*
X91056Y-52401D01*
X84944D01*
X84557Y-52478D01*
X84229Y-52697D01*
X84009Y-53025D01*
X83933Y-53412D01*
Y-55588D01*
X84009Y-55975D01*
X84229Y-56303D01*
X84557Y-56522D01*
X84944Y-56599D01*
X91056D01*
X91443Y-56522D01*
X91771Y-56303D01*
X91954Y-56029D01*
X95367D01*
X99471Y-60133D01*
Y-62993D01*
X90499Y-71964D01*
X85846D01*
Y-78288D01*
X93154D01*
Y-73634D01*
X102081Y-64707D01*
X102413Y-64211D01*
X102529Y-63626D01*
Y-61029D01*
X106290D01*
X106473Y-61303D01*
X106801Y-61522D01*
X107188Y-61599D01*
X113300D01*
X113687Y-61522D01*
X114015Y-61303D01*
X114198Y-61029D01*
X115366D01*
X118723Y-64386D01*
X118708Y-64500D01*
X118803Y-65223D01*
X119082Y-65896D01*
X119526Y-66474D01*
X119516Y-66668D01*
X119381Y-66994D01*
X118915Y-67087D01*
X118419Y-67419D01*
X115767Y-70070D01*
X115436Y-70566D01*
X115319Y-71151D01*
Y-71472D01*
X112275D01*
Y-78780D01*
X118599D01*
Y-76727D01*
X119048Y-76541D01*
X119099Y-76545D01*
X119526Y-77100D01*
X119971Y-77442D01*
Y-79366D01*
X115919Y-83419D01*
X115587Y-83915D01*
X115471Y-84500D01*
Y-92000D01*
X115587Y-92585D01*
X115919Y-93081D01*
X119419Y-96581D01*
X119915Y-96913D01*
X120500Y-97029D01*
X121046D01*
X121229Y-97303D01*
X121557Y-97522D01*
X121944Y-97599D01*
X128056D01*
X128443Y-97522D01*
X128771Y-97303D01*
X128990Y-96975D01*
X129068Y-96588D01*
Y-94412D01*
X128990Y-94025D01*
X128771Y-93697D01*
X128443Y-93478D01*
X128056Y-93401D01*
X121944D01*
X121557Y-93478D01*
X121229Y-93697D01*
X120893Y-93730D01*
X118529Y-91366D01*
Y-85133D01*
X122581Y-81081D01*
X122913Y-80585D01*
X123029Y-80000D01*
Y-77895D01*
X130818D01*
X131000Y-77918D01*
X131182Y-77895D01*
X131769D01*
Y-77804D01*
X132396Y-77544D01*
X132975Y-77100D01*
X133316Y-76655D01*
X136346D01*
Y-77599D01*
X143654D01*
Y-71275D01*
X136346D01*
Y-73597D01*
X133316D01*
X132975Y-73151D01*
X132529Y-72810D01*
Y-66816D01*
X132975Y-66474D01*
X133418Y-65896D01*
X133697Y-65223D01*
X133792Y-64500D01*
X133697Y-63777D01*
X133418Y-63104D01*
X132975Y-62525D01*
X132396Y-62082D01*
X131769Y-61822D01*
Y-61731D01*
X131182D01*
X131000Y-61708D01*
X130818Y-61731D01*
X121681D01*
X121500Y-61708D01*
X121318Y-61731D01*
X120731D01*
Y-61731D01*
X120279Y-61616D01*
X117081Y-58419D01*
X116688Y-58156D01*
X116626Y-57764D01*
X116647Y-57590D01*
X117212Y-57212D01*
X117737Y-56427D01*
X117921Y-55500D01*
X117737Y-54573D01*
X117212Y-53788D01*
X116427Y-53263D01*
X115500Y-53079D01*
X115171Y-53144D01*
X115085Y-53087D01*
X114500Y-52971D01*
X114198D01*
X114015Y-52697D01*
X113687Y-52478D01*
X113300Y-52401D01*
X107188D01*
X106801Y-52478D01*
X106473Y-52697D01*
X106254Y-53025D01*
X106177Y-53412D01*
Y-55588D01*
X106254Y-55975D01*
X106473Y-56303D01*
X106801Y-56522D01*
X107188Y-56599D01*
X113300D01*
X113321Y-56595D01*
X113588Y-56994D01*
X113315Y-57404D01*
X113300Y-57401D01*
X107188D01*
X106801Y-57478D01*
X106473Y-57697D01*
X106290Y-57971D01*
X101634D01*
X97529Y-53866D01*
Y-47500D01*
X97413Y-46915D01*
X97081Y-46419D01*
X88581Y-37919D01*
X88085Y-37587D01*
X87500Y-37471D01*
X76599D01*
Y-35346D01*
D02*
G37*
G36*
X50531Y-51000D02*
X48500D01*
Y-53031D01*
X48672Y-53009D01*
X49299Y-52749D01*
X49836Y-52336D01*
X50249Y-51798D01*
X50508Y-51172D01*
X50531Y-51000D01*
D02*
G37*
G36*
X47500D02*
X45469D01*
X45491Y-51172D01*
X45751Y-51798D01*
X46164Y-52336D01*
X46701Y-52749D01*
X47328Y-53009D01*
X47500Y-53031D01*
Y-51000D01*
D02*
G37*
G36*
X243178Y-51401D02*
X237066D01*
X236679Y-51478D01*
X236351Y-51697D01*
X236132Y-52025D01*
X236055Y-52412D01*
Y-54588D01*
X236132Y-54975D01*
X236351Y-55303D01*
X236679Y-55522D01*
X237066Y-55599D01*
X243178D01*
X243565Y-55522D01*
X243893Y-55303D01*
X244112Y-54975D01*
X244190Y-54588D01*
Y-52412D01*
X244112Y-52025D01*
X243893Y-51697D01*
X243565Y-51478D01*
X243178Y-51401D01*
D02*
G37*
G36*
X220934D02*
X214822D01*
X214435Y-51478D01*
X214107Y-51697D01*
X213888Y-52025D01*
X213810Y-52412D01*
Y-54588D01*
X213888Y-54975D01*
X214107Y-55303D01*
X214435Y-55522D01*
X214822Y-55599D01*
X220934D01*
X221321Y-55522D01*
X221649Y-55303D01*
X221868Y-54975D01*
X221945Y-54588D01*
Y-52412D01*
X221868Y-52025D01*
X221649Y-51697D01*
X221321Y-51478D01*
X220934Y-51401D01*
D02*
G37*
G36*
X244500Y-56079D02*
X243573Y-56263D01*
X243323Y-56430D01*
X243178Y-56401D01*
X237066D01*
X236679Y-56478D01*
X236351Y-56697D01*
X236132Y-57025D01*
X236055Y-57412D01*
Y-59588D01*
X236132Y-59975D01*
X236351Y-60303D01*
X236679Y-60522D01*
X237066Y-60599D01*
X243178D01*
X243323Y-60570D01*
X243573Y-60737D01*
X244500Y-60921D01*
X245427Y-60737D01*
X246212Y-60212D01*
X246737Y-59427D01*
X246921Y-58500D01*
X246737Y-57573D01*
X246212Y-56788D01*
X245427Y-56263D01*
X244500Y-56079D01*
D02*
G37*
G36*
X17000Y-39516D02*
X15969Y-39652D01*
X15008Y-40050D01*
X14183Y-40683D01*
X13550Y-41508D01*
X13152Y-42469D01*
X13016Y-43500D01*
X13152Y-44531D01*
X13550Y-45492D01*
X14183Y-46317D01*
X15008Y-46950D01*
X15969Y-47348D01*
X17000Y-47484D01*
X18031Y-47348D01*
X18494Y-47156D01*
X20901Y-49564D01*
Y-56654D01*
X27225D01*
Y-49346D01*
X25008D01*
X20656Y-44993D01*
X20848Y-44531D01*
X20984Y-43500D01*
X20848Y-42469D01*
X20450Y-41508D01*
X19817Y-40683D01*
X18992Y-40050D01*
X18031Y-39652D01*
X17000Y-39516D01*
D02*
G37*
G36*
X35099Y-49346D02*
X28775D01*
Y-56654D01*
X33465D01*
X33852Y-56913D01*
X34437Y-57029D01*
X34666D01*
X34788Y-57212D01*
X35573Y-57737D01*
X36500Y-57921D01*
X37427Y-57737D01*
X38212Y-57212D01*
X38737Y-56427D01*
X38921Y-55500D01*
X38737Y-54573D01*
X38212Y-53788D01*
X37427Y-53263D01*
X36500Y-53079D01*
X35599Y-53258D01*
X35511Y-53262D01*
X35099Y-53005D01*
Y-49346D01*
D02*
G37*
G36*
X200599Y-30846D02*
X194275D01*
Y-38154D01*
X198928D01*
X203356Y-42581D01*
X203403Y-43060D01*
X202856Y-43608D01*
X202524Y-44104D01*
X202408Y-44689D01*
Y-54546D01*
X200775D01*
Y-61855D01*
X203471D01*
Y-64050D01*
X201050D01*
Y-71950D01*
X208950D01*
Y-64050D01*
X206529D01*
Y-61855D01*
X207099D01*
Y-59730D01*
X213839D01*
X213888Y-59975D01*
X214107Y-60303D01*
X214435Y-60522D01*
X214822Y-60599D01*
X220934D01*
X221321Y-60522D01*
X221649Y-60303D01*
X221868Y-59975D01*
X221945Y-59588D01*
Y-57412D01*
X221868Y-57025D01*
X221649Y-56697D01*
X221321Y-56478D01*
X220934Y-56401D01*
X214822D01*
X214435Y-56478D01*
X214145Y-56671D01*
X207099D01*
Y-54546D01*
X205466D01*
Y-45322D01*
X205634Y-45154D01*
X210288D01*
Y-37846D01*
X203964D01*
Y-38211D01*
X203502Y-38402D01*
X200599Y-35499D01*
Y-30846D01*
D02*
G37*
G36*
X143158Y-43657D02*
X137031D01*
Y-52343D01*
X137971D01*
Y-55026D01*
X138087Y-55611D01*
X138419Y-56107D01*
X138838Y-56526D01*
Y-59039D01*
X138587Y-59415D01*
X138471Y-60000D01*
Y-63401D01*
X136346D01*
Y-69725D01*
X143654D01*
Y-63401D01*
X141529D01*
Y-61654D01*
X144662D01*
X144858Y-61654D01*
X145157Y-62031D01*
X145157Y-62102D01*
X145157Y-62405D01*
Y-68158D01*
X153843D01*
Y-62031D01*
X153335D01*
X153036Y-61654D01*
Y-60029D01*
X158424D01*
X158607Y-60303D01*
X158935Y-60522D01*
X159322Y-60599D01*
X165434D01*
X165821Y-60522D01*
X166149Y-60303D01*
X166368Y-59975D01*
X166445Y-59588D01*
Y-57412D01*
X166368Y-57025D01*
X166149Y-56697D01*
X165821Y-56478D01*
X165434Y-56401D01*
X159322D01*
X158935Y-56478D01*
X158607Y-56697D01*
X158424Y-56971D01*
X153036D01*
Y-54346D01*
X146712D01*
Y-61654D01*
X146413Y-62031D01*
X145657D01*
X145461Y-62031D01*
X145162Y-61654D01*
X145162Y-61583D01*
X145162Y-61280D01*
Y-54346D01*
X141029D01*
Y-52343D01*
X143158D01*
Y-43657D01*
D02*
G37*
G36*
X68725Y-35346D02*
X62401D01*
Y-39999D01*
X62119Y-40281D01*
X61788Y-40777D01*
X61671Y-41362D01*
Y-43460D01*
X59743D01*
Y-52540D01*
X62471D01*
Y-54243D01*
X59460D01*
Y-61158D01*
X68540D01*
Y-54243D01*
X65529D01*
Y-52540D01*
X66658D01*
Y-43460D01*
X64730D01*
Y-42654D01*
X68725D01*
Y-35346D01*
D02*
G37*
G36*
X79257Y-43460D02*
X72342D01*
Y-52540D01*
X74270D01*
Y-55464D01*
X71846D01*
Y-61788D01*
X79154D01*
Y-61029D01*
X84046D01*
X84229Y-61303D01*
X84557Y-61522D01*
X84944Y-61599D01*
X91056D01*
X91443Y-61522D01*
X91771Y-61303D01*
X91991Y-60975D01*
X92067Y-60588D01*
Y-58412D01*
X91991Y-58025D01*
X91771Y-57697D01*
X91443Y-57478D01*
X91056Y-57401D01*
X84944D01*
X84557Y-57478D01*
X84229Y-57697D01*
X84046Y-57971D01*
X79154D01*
Y-55464D01*
X77329D01*
Y-52540D01*
X79257D01*
Y-43460D01*
D02*
G37*
G36*
X91056Y-62401D02*
X84944D01*
X84557Y-62478D01*
X84313Y-62641D01*
X84000Y-62579D01*
X83073Y-62763D01*
X82288Y-63288D01*
X81763Y-64073D01*
X81579Y-65000D01*
X81763Y-65927D01*
X82288Y-66712D01*
X83073Y-67237D01*
X84000Y-67421D01*
X84927Y-67237D01*
X85712Y-66712D01*
X85788Y-66599D01*
X91056D01*
X91443Y-66522D01*
X91771Y-66303D01*
X91991Y-65975D01*
X92067Y-65588D01*
Y-63412D01*
X91991Y-63025D01*
X91771Y-62697D01*
X91443Y-62478D01*
X91056Y-62401D01*
D02*
G37*
G36*
X220934Y-61197D02*
X218378D01*
Y-63000D01*
X222149D01*
Y-62412D01*
X222057Y-61947D01*
X221793Y-61553D01*
X221399Y-61290D01*
X220934Y-61197D01*
D02*
G37*
G36*
X17500Y-61469D02*
Y-63500D01*
X19531D01*
X19509Y-63328D01*
X19249Y-62701D01*
X18836Y-62164D01*
X18298Y-61751D01*
X17672Y-61492D01*
X17500Y-61469D01*
D02*
G37*
G36*
X16500D02*
X16328Y-61492D01*
X15701Y-61751D01*
X15164Y-62164D01*
X14751Y-62701D01*
X14491Y-63328D01*
X14469Y-63500D01*
X16500D01*
Y-61469D01*
D02*
G37*
G36*
X218162Y-37846D02*
X211838D01*
Y-45154D01*
X218162D01*
X218162Y-45154D01*
Y-45154D01*
X218623Y-45286D01*
X227971Y-54633D01*
Y-60000D01*
X228087Y-60585D01*
X228419Y-61081D01*
X230471Y-63134D01*
Y-78430D01*
X229073Y-79827D01*
X229024Y-79901D01*
X224346D01*
Y-86225D01*
X231654D01*
Y-84592D01*
X232929D01*
X235050Y-86713D01*
Y-92450D01*
X242950D01*
Y-84550D01*
X237213D01*
X234644Y-81982D01*
X234148Y-81650D01*
X233563Y-81534D01*
X232346D01*
X232154Y-81072D01*
X233081Y-80144D01*
X233413Y-79648D01*
X233529Y-79063D01*
Y-65029D01*
X236168D01*
X236351Y-65303D01*
X236679Y-65522D01*
X237066Y-65599D01*
X243178D01*
X243565Y-65522D01*
X243893Y-65303D01*
X244112Y-64975D01*
X244190Y-64588D01*
Y-62412D01*
X244112Y-62025D01*
X243893Y-61697D01*
X243565Y-61478D01*
X243178Y-61401D01*
X237066D01*
X236679Y-61478D01*
X236351Y-61697D01*
X236168Y-61971D01*
X233424D01*
X233413Y-61915D01*
X233081Y-61419D01*
X231029Y-59367D01*
Y-54000D01*
X230913Y-53415D01*
X230581Y-52919D01*
X218162Y-40499D01*
Y-37846D01*
D02*
G37*
G36*
X187678Y-61401D02*
X181566D01*
X181179Y-61478D01*
X180851Y-61697D01*
X180632Y-62025D01*
X180555Y-62412D01*
Y-64588D01*
X180632Y-64975D01*
X180851Y-65303D01*
X181179Y-65522D01*
X181566Y-65599D01*
X187678D01*
X188065Y-65522D01*
X188393Y-65303D01*
X188612Y-64975D01*
X188689Y-64588D01*
Y-62412D01*
X188612Y-62025D01*
X188393Y-61697D01*
X188065Y-61478D01*
X187678Y-61401D01*
D02*
G37*
G36*
X222149Y-64000D02*
X218378D01*
Y-65803D01*
X220934D01*
X221399Y-65710D01*
X221793Y-65447D01*
X222057Y-65053D01*
X222149Y-64588D01*
Y-64000D01*
D02*
G37*
G36*
X79354Y-63138D02*
X76000D01*
Y-66000D01*
X79354D01*
Y-63138D01*
D02*
G37*
G36*
X75000D02*
X71646D01*
Y-66000D01*
X75000D01*
Y-63138D01*
D02*
G37*
G36*
X19531Y-64500D02*
X17500D01*
Y-66531D01*
X17672Y-66509D01*
X18298Y-66249D01*
X18836Y-65836D01*
X19249Y-65298D01*
X19509Y-64672D01*
X19531Y-64500D01*
D02*
G37*
G36*
X16500D02*
X14469D01*
X14491Y-64672D01*
X14751Y-65298D01*
X15164Y-65836D01*
X15701Y-66249D01*
X16328Y-66509D01*
X16500Y-66531D01*
Y-64500D01*
D02*
G37*
G36*
X113300Y-62401D02*
X107188D01*
X106801Y-62478D01*
X106473Y-62697D01*
X106254Y-63025D01*
X106177Y-63412D01*
Y-65588D01*
X106254Y-65975D01*
X106473Y-66303D01*
X106801Y-66522D01*
X107188Y-66599D01*
X113300D01*
X113687Y-66522D01*
X114015Y-66303D01*
X114235Y-65975D01*
X114312Y-65588D01*
Y-63412D01*
X114235Y-63025D01*
X114015Y-62697D01*
X113687Y-62478D01*
X113300Y-62401D01*
D02*
G37*
G36*
X6500Y-65880D02*
Y-69500D01*
X10120D01*
X10043Y-68917D01*
X9625Y-67907D01*
X8959Y-67040D01*
X8093Y-66375D01*
X7083Y-65957D01*
X6500Y-65880D01*
D02*
G37*
G36*
X5500D02*
X4917Y-65957D01*
X3907Y-66375D01*
X3040Y-67040D01*
X2375Y-67907D01*
X1957Y-68917D01*
X1880Y-69500D01*
X5500D01*
Y-65880D01*
D02*
G37*
G36*
X180500Y-67969D02*
Y-70000D01*
X182531D01*
X182509Y-69828D01*
X182249Y-69201D01*
X181836Y-68664D01*
X181298Y-68251D01*
X180672Y-67992D01*
X180500Y-67969D01*
D02*
G37*
G36*
X179500D02*
X179328Y-67992D01*
X178701Y-68251D01*
X178164Y-68664D01*
X177751Y-69201D01*
X177491Y-69828D01*
X177469Y-70000D01*
X179500D01*
Y-67969D01*
D02*
G37*
G36*
X243178Y-66401D02*
X237066D01*
X236679Y-66478D01*
X236351Y-66697D01*
X236132Y-67025D01*
X236055Y-67412D01*
Y-69588D01*
X236132Y-69975D01*
X236351Y-70303D01*
X236679Y-70522D01*
X237066Y-70599D01*
X243178D01*
X243565Y-70522D01*
X243893Y-70303D01*
X244112Y-69975D01*
X244190Y-69588D01*
Y-67412D01*
X244112Y-67025D01*
X243893Y-66697D01*
X243565Y-66478D01*
X243178Y-66401D01*
D02*
G37*
G36*
X54678Y-66901D02*
X48566D01*
X48179Y-66978D01*
X47851Y-67197D01*
X47632Y-67525D01*
X47555Y-67912D01*
Y-70088D01*
X47632Y-70475D01*
X47851Y-70803D01*
X48179Y-71022D01*
X48566Y-71099D01*
X54678D01*
X55065Y-71022D01*
X55393Y-70803D01*
X55612Y-70475D01*
X55690Y-70088D01*
Y-67912D01*
X55612Y-67525D01*
X55393Y-67197D01*
X55065Y-66978D01*
X54678Y-66901D01*
D02*
G37*
G36*
X32434D02*
X26322D01*
X25935Y-66978D01*
X25607Y-67197D01*
X25387Y-67525D01*
X25311Y-67912D01*
Y-70088D01*
X25387Y-70475D01*
X25607Y-70803D01*
X25935Y-71022D01*
X26322Y-71099D01*
X32434D01*
X32821Y-71022D01*
X33149Y-70803D01*
X33368Y-70475D01*
X33445Y-70088D01*
Y-67912D01*
X33368Y-67525D01*
X33149Y-67197D01*
X32821Y-66978D01*
X32434Y-66901D01*
D02*
G37*
G36*
X162969Y-69728D02*
X160500D01*
Y-72000D01*
X162969D01*
Y-69728D01*
D02*
G37*
G36*
X159500D02*
X157032D01*
Y-72000D01*
X159500D01*
Y-69728D01*
D02*
G37*
G36*
X80031Y-70000D02*
X78000D01*
Y-72031D01*
X78172Y-72009D01*
X78799Y-71749D01*
X79336Y-71336D01*
X79749Y-70798D01*
X80009Y-70172D01*
X80031Y-70000D01*
D02*
G37*
G36*
X79354Y-67000D02*
X75500D01*
X71646D01*
Y-69862D01*
X74951D01*
X74992Y-70172D01*
X75251Y-70798D01*
X75664Y-71336D01*
X76201Y-71749D01*
X76828Y-72009D01*
X77000Y-72031D01*
Y-69500D01*
X77500D01*
Y-69000D01*
X80031D01*
X80009Y-68828D01*
X79749Y-68202D01*
X79354Y-67687D01*
Y-67000D01*
D02*
G37*
G36*
X56500Y-71579D02*
X55573Y-71763D01*
X55158Y-72040D01*
X55065Y-71978D01*
X54678Y-71901D01*
X48566D01*
X48179Y-71978D01*
X47851Y-72197D01*
X47632Y-72525D01*
X47555Y-72912D01*
Y-75088D01*
X47632Y-75475D01*
X47851Y-75803D01*
X48179Y-76022D01*
X48566Y-76099D01*
X54678D01*
X55065Y-76022D01*
X55158Y-75960D01*
X55573Y-76237D01*
X56500Y-76421D01*
X57427Y-76237D01*
X58212Y-75712D01*
X58737Y-74927D01*
X58921Y-74000D01*
X58737Y-73073D01*
X58212Y-72288D01*
X57427Y-71763D01*
X56500Y-71579D01*
D02*
G37*
G36*
X99000Y-70969D02*
Y-73000D01*
X101031D01*
X101008Y-72828D01*
X100749Y-72202D01*
X100336Y-71664D01*
X99799Y-71251D01*
X99172Y-70991D01*
X99000Y-70969D01*
D02*
G37*
G36*
X98000D02*
X97828Y-70991D01*
X97202Y-71251D01*
X96664Y-71664D01*
X96251Y-72202D01*
X95991Y-72828D01*
X95969Y-73000D01*
X98000D01*
Y-70969D01*
D02*
G37*
G36*
X182531Y-71000D02*
X180500D01*
Y-73031D01*
X180672Y-73009D01*
X181298Y-72749D01*
X181836Y-72336D01*
X182249Y-71798D01*
X182509Y-71172D01*
X182531Y-71000D01*
D02*
G37*
G36*
X179500D02*
X177469D01*
X177491Y-71172D01*
X177751Y-71798D01*
X178164Y-72336D01*
X178701Y-72749D01*
X179328Y-73009D01*
X179500Y-73031D01*
Y-71000D01*
D02*
G37*
G36*
X82500Y-71969D02*
Y-74000D01*
X84531D01*
X84509Y-73828D01*
X84249Y-73202D01*
X83836Y-72664D01*
X83298Y-72251D01*
X82672Y-71991D01*
X82500Y-71969D01*
D02*
G37*
G36*
X81500D02*
X81328Y-71991D01*
X80702Y-72251D01*
X80164Y-72664D01*
X79751Y-73202D01*
X79492Y-73828D01*
X79469Y-74000D01*
X81500D01*
Y-71969D01*
D02*
G37*
G36*
X10120Y-70500D02*
X6500D01*
Y-74120D01*
X7083Y-74043D01*
X8093Y-73625D01*
X8959Y-72960D01*
X9625Y-72093D01*
X10043Y-71083D01*
X10120Y-70500D01*
D02*
G37*
G36*
X5500D02*
X1880D01*
X1957Y-71083D01*
X2375Y-72093D01*
X3040Y-72960D01*
X3907Y-73625D01*
X4917Y-74043D01*
X5500Y-74120D01*
Y-70500D01*
D02*
G37*
G36*
X101031Y-74000D02*
X99000D01*
Y-76031D01*
X99172Y-76008D01*
X99799Y-75749D01*
X100336Y-75336D01*
X100749Y-74799D01*
X101008Y-74172D01*
X101031Y-74000D01*
D02*
G37*
G36*
X98000D02*
X95969D01*
X95991Y-74172D01*
X96251Y-74799D01*
X96664Y-75336D01*
X97202Y-75749D01*
X97828Y-76008D01*
X98000Y-76031D01*
Y-74000D01*
D02*
G37*
G36*
X154043Y-73642D02*
X150000D01*
Y-76406D01*
X154043D01*
Y-73642D01*
D02*
G37*
G36*
X149000D02*
X144957D01*
Y-76406D01*
X149000D01*
Y-73642D01*
D02*
G37*
G36*
X217378Y-61197D02*
X214822D01*
X214357Y-61290D01*
X214110Y-61454D01*
X213828Y-61492D01*
X213201Y-61751D01*
X212664Y-62164D01*
X212251Y-62701D01*
X211992Y-63328D01*
X211969Y-63500D01*
X214500D01*
Y-64500D01*
X211969D01*
X211992Y-64672D01*
X212251Y-65298D01*
X212664Y-65836D01*
X213201Y-66249D01*
X213674Y-66445D01*
X213870Y-66857D01*
X213890Y-67021D01*
X213888Y-67025D01*
X213810Y-67412D01*
Y-68153D01*
X210779Y-71184D01*
X210231D01*
Y-71732D01*
X205492Y-76471D01*
X177878D01*
X175378Y-73971D01*
X175421Y-73756D01*
X175237Y-72829D01*
X174712Y-72044D01*
X173927Y-71519D01*
X173000Y-71335D01*
X172784Y-71377D01*
X166609Y-65202D01*
Y-64900D01*
X166492Y-64314D01*
X166455Y-64259D01*
Y-64079D01*
X166445Y-64030D01*
Y-62412D01*
X166368Y-62025D01*
X166149Y-61697D01*
X165821Y-61478D01*
X165434Y-61401D01*
X159322D01*
X158935Y-61478D01*
X158607Y-61697D01*
X158387Y-62025D01*
X158310Y-62412D01*
Y-63629D01*
X157231D01*
Y-68772D01*
X160460D01*
X161000Y-68880D01*
X161540Y-68772D01*
X162768D01*
Y-65599D01*
X163550D01*
Y-65835D01*
X163667Y-66421D01*
X163998Y-66917D01*
X170622Y-73540D01*
X170579Y-73756D01*
X170763Y-74682D01*
X171288Y-75468D01*
X172073Y-75993D01*
X173000Y-76177D01*
X173216Y-76134D01*
X176163Y-79081D01*
X176659Y-79413D01*
X177244Y-79529D01*
X206126D01*
X206711Y-79413D01*
X207207Y-79081D01*
X209789Y-76499D01*
X210231Y-76328D01*
Y-76328D01*
X210231Y-76328D01*
X215769D01*
Y-71184D01*
X215958Y-70763D01*
X216061Y-70609D01*
X217298D01*
X217349Y-70599D01*
X220934D01*
X221321Y-70522D01*
X221649Y-70303D01*
X221868Y-69975D01*
X221945Y-69588D01*
Y-67412D01*
X221868Y-67025D01*
X221649Y-66697D01*
X221321Y-66478D01*
X220934Y-66401D01*
X216933D01*
X216676Y-65901D01*
X216747Y-65803D01*
X217378D01*
Y-63500D01*
Y-61197D01*
D02*
G37*
G36*
X84531Y-75000D02*
X82500D01*
Y-77031D01*
X82672Y-77008D01*
X83298Y-76749D01*
X83836Y-76336D01*
X84249Y-75798D01*
X84509Y-75172D01*
X84531Y-75000D01*
D02*
G37*
G36*
X81500D02*
X79469D01*
X79492Y-75172D01*
X79751Y-75798D01*
X80164Y-76336D01*
X80702Y-76749D01*
X81328Y-77008D01*
X81500Y-77031D01*
Y-75000D01*
D02*
G37*
G36*
X162969Y-73000D02*
X157032D01*
Y-75272D01*
X157439D01*
X157492Y-75672D01*
X157751Y-76298D01*
X158164Y-76836D01*
X158702Y-77249D01*
X159328Y-77508D01*
X159500Y-77531D01*
Y-75000D01*
X160500D01*
Y-77531D01*
X160672Y-77508D01*
X161299Y-77249D01*
X161836Y-76836D01*
X162249Y-76298D01*
X162508Y-75672D01*
X162561Y-75272D01*
X162969D01*
Y-73000D01*
D02*
G37*
G36*
X68540Y-66842D02*
X59460D01*
Y-73757D01*
X62471D01*
Y-77901D01*
X60492D01*
X60022Y-77587D01*
X59437Y-77471D01*
X55576D01*
X55393Y-77197D01*
X55065Y-76978D01*
X54678Y-76901D01*
X48566D01*
X48179Y-76978D01*
X47851Y-77197D01*
X47668Y-77471D01*
X42134D01*
X37581Y-72919D01*
X37085Y-72587D01*
X36500Y-72471D01*
X33332D01*
X33149Y-72197D01*
X32821Y-71978D01*
X32434Y-71901D01*
X26322D01*
X25935Y-71978D01*
X25607Y-72197D01*
X25387Y-72525D01*
X25311Y-72912D01*
Y-75088D01*
X25387Y-75475D01*
X25607Y-75803D01*
X25935Y-76022D01*
X26322Y-76099D01*
X32434D01*
X32821Y-76022D01*
X33149Y-75803D01*
X33332Y-75529D01*
X35866D01*
X40419Y-80081D01*
X40915Y-80413D01*
X41500Y-80529D01*
X47668D01*
X47851Y-80803D01*
X48179Y-81022D01*
X48566Y-81099D01*
X54678D01*
X55065Y-81022D01*
X55393Y-80803D01*
X55576Y-80529D01*
X57846D01*
Y-84225D01*
X65154D01*
Y-79535D01*
X65413Y-79148D01*
X65529Y-78563D01*
Y-73757D01*
X68540D01*
Y-66842D01*
D02*
G37*
G36*
X212500Y-77284D02*
X210032D01*
Y-79555D01*
X212500D01*
Y-77284D01*
D02*
G37*
G36*
X9950Y-76050D02*
X2050D01*
Y-83950D01*
X9950D01*
Y-81529D01*
X13846D01*
Y-83725D01*
X21154D01*
Y-80529D01*
X25424D01*
X25607Y-80803D01*
X25935Y-81022D01*
X26322Y-81099D01*
X32434D01*
X32821Y-81022D01*
X33149Y-80803D01*
X33368Y-80475D01*
X33445Y-80088D01*
Y-77912D01*
X33368Y-77525D01*
X33149Y-77197D01*
X32821Y-76978D01*
X32434Y-76901D01*
X26322D01*
X25935Y-76978D01*
X25607Y-77197D01*
X25424Y-77471D01*
X21154D01*
Y-77401D01*
X13846D01*
Y-78471D01*
X9950D01*
Y-76050D01*
D02*
G37*
G36*
X110725Y-71472D02*
X104401D01*
Y-76125D01*
X102056Y-78471D01*
X99000D01*
X98415Y-78587D01*
X97919Y-78919D01*
X95367Y-81471D01*
X93154D01*
Y-79838D01*
X85846D01*
Y-86162D01*
X87971D01*
Y-86500D01*
X88087Y-87085D01*
X88419Y-87581D01*
X92419Y-91581D01*
X92915Y-91913D01*
X93500Y-92029D01*
X98802D01*
X98985Y-92303D01*
X99189Y-92440D01*
X99115Y-92954D01*
X98828Y-92992D01*
X98202Y-93251D01*
X97664Y-93664D01*
X97251Y-94201D01*
X96991Y-94828D01*
X96969Y-95000D01*
X99500D01*
Y-96000D01*
X96969D01*
X96991Y-96172D01*
X97251Y-96798D01*
X97664Y-97336D01*
X98202Y-97749D01*
X98738Y-97971D01*
X98875Y-98268D01*
X98921Y-98525D01*
X98750Y-98725D01*
X98427Y-98763D01*
X97500Y-98579D01*
X96573Y-98763D01*
X95788Y-99288D01*
X95263Y-100073D01*
X95079Y-101000D01*
X95263Y-101927D01*
X95788Y-102712D01*
X96573Y-103237D01*
X97500Y-103421D01*
X98427Y-103237D01*
X99212Y-102712D01*
X99336Y-102527D01*
X99700Y-102599D01*
X105812D01*
X106199Y-102522D01*
X106527Y-102303D01*
X106746Y-101975D01*
X106823Y-101588D01*
Y-99412D01*
X106746Y-99025D01*
X106527Y-98697D01*
X106199Y-98478D01*
X105812Y-98401D01*
X101033D01*
X100825Y-97901D01*
X100922Y-97803D01*
X102256D01*
Y-95500D01*
Y-93197D01*
X100922D01*
X100825Y-93099D01*
X101033Y-92599D01*
X105812D01*
X106199Y-92522D01*
X106527Y-92303D01*
X106746Y-91975D01*
X106823Y-91588D01*
Y-89412D01*
X106746Y-89025D01*
X106527Y-88697D01*
X106199Y-88478D01*
X105812Y-88401D01*
X99700D01*
X99313Y-88478D01*
X98985Y-88697D01*
X98802Y-88971D01*
X94134D01*
X91787Y-86624D01*
X91978Y-86162D01*
X93154D01*
Y-84529D01*
X96000D01*
X96585Y-84413D01*
X97081Y-84081D01*
X99634Y-81529D01*
X102689D01*
X103274Y-81413D01*
X103770Y-81081D01*
X106071Y-78780D01*
X110725D01*
Y-71472D01*
D02*
G37*
G36*
X154043Y-77406D02*
X149500D01*
X144957D01*
Y-80169D01*
X146925D01*
X146992Y-80672D01*
X147251Y-81299D01*
X147664Y-81836D01*
X148202Y-82249D01*
X148828Y-82508D01*
X149000Y-82531D01*
Y-80000D01*
X150000D01*
Y-82531D01*
X150172Y-82508D01*
X150798Y-82249D01*
X151336Y-81836D01*
X151749Y-81299D01*
X152008Y-80672D01*
X152075Y-80169D01*
X154043D01*
Y-77406D01*
D02*
G37*
G36*
X76500Y-82469D02*
Y-84500D01*
X78531D01*
X78509Y-84328D01*
X78249Y-83701D01*
X77836Y-83164D01*
X77298Y-82751D01*
X76672Y-82491D01*
X76500Y-82469D01*
D02*
G37*
G36*
X75500D02*
X75328Y-82491D01*
X74701Y-82751D01*
X74164Y-83164D01*
X73751Y-83701D01*
X73492Y-84328D01*
X73469Y-84500D01*
X75500D01*
Y-82469D01*
D02*
G37*
G36*
X217031Y-82500D02*
X215000D01*
Y-84531D01*
X215172Y-84509D01*
X215798Y-84249D01*
X216336Y-83836D01*
X216749Y-83298D01*
X217008Y-82672D01*
X217031Y-82500D01*
D02*
G37*
G36*
X215968Y-77284D02*
X213500D01*
Y-80055D01*
X213000D01*
Y-80555D01*
X210032D01*
Y-82827D01*
X212055D01*
X212251Y-83298D01*
X212664Y-83836D01*
X213201Y-84249D01*
X213828Y-84509D01*
X214000Y-84531D01*
Y-82000D01*
X214500D01*
Y-81500D01*
X217031D01*
X217008Y-81328D01*
X216749Y-80702D01*
X216336Y-80164D01*
X215968Y-79881D01*
Y-77284D01*
D02*
G37*
G36*
X54678Y-81901D02*
X48566D01*
X48179Y-81978D01*
X47851Y-82197D01*
X47632Y-82525D01*
X47555Y-82912D01*
Y-85088D01*
X47632Y-85475D01*
X47851Y-85803D01*
X48179Y-86022D01*
X48566Y-86099D01*
X54678D01*
X55065Y-86022D01*
X55393Y-85803D01*
X55612Y-85475D01*
X55690Y-85088D01*
Y-82912D01*
X55612Y-82525D01*
X55393Y-82197D01*
X55065Y-81978D01*
X54678Y-81901D01*
D02*
G37*
G36*
X25500Y-81579D02*
X24573Y-81763D01*
X23788Y-82288D01*
X23263Y-83073D01*
X23079Y-84000D01*
X23263Y-84927D01*
X23788Y-85712D01*
X24573Y-86237D01*
X25500Y-86421D01*
X26427Y-86237D01*
X26633Y-86099D01*
X32434D01*
X32821Y-86022D01*
X33149Y-85803D01*
X33368Y-85475D01*
X33445Y-85088D01*
Y-82912D01*
X33368Y-82525D01*
X33149Y-82197D01*
X32821Y-81978D01*
X32434Y-81901D01*
X26633D01*
X26427Y-81763D01*
X25500Y-81579D01*
D02*
G37*
G36*
X207500Y-84469D02*
Y-86500D01*
X209531D01*
X209508Y-86328D01*
X209249Y-85702D01*
X208836Y-85164D01*
X208298Y-84751D01*
X207672Y-84491D01*
X207500Y-84469D01*
D02*
G37*
G36*
X206500D02*
X206328Y-84491D01*
X205701Y-84751D01*
X205164Y-85164D01*
X204751Y-85702D01*
X204491Y-86328D01*
X204469Y-86500D01*
X206500D01*
Y-84469D01*
D02*
G37*
G36*
X78531Y-85500D02*
X76500D01*
Y-87531D01*
X76672Y-87508D01*
X77298Y-87249D01*
X77836Y-86836D01*
X78249Y-86299D01*
X78509Y-85672D01*
X78531Y-85500D01*
D02*
G37*
G36*
X75500D02*
X73469D01*
X73492Y-85672D01*
X73751Y-86299D01*
X74164Y-86836D01*
X74701Y-87249D01*
X75328Y-87508D01*
X75500Y-87531D01*
Y-85500D01*
D02*
G37*
G36*
X128056Y-83401D02*
X121944D01*
X121557Y-83478D01*
X121229Y-83697D01*
X121010Y-84025D01*
X120932Y-84412D01*
Y-86588D01*
X121010Y-86975D01*
X121229Y-87303D01*
X121557Y-87522D01*
X121944Y-87599D01*
X128056D01*
X128443Y-87522D01*
X128771Y-87303D01*
X128990Y-86975D01*
X129068Y-86588D01*
Y-84412D01*
X128990Y-84025D01*
X128771Y-83697D01*
X128443Y-83478D01*
X128056Y-83401D01*
D02*
G37*
G36*
X105812D02*
X99700D01*
X99313Y-83478D01*
X98985Y-83697D01*
X98765Y-84025D01*
X98689Y-84412D01*
Y-86588D01*
X98765Y-86975D01*
X98985Y-87303D01*
X99313Y-87522D01*
X99700Y-87599D01*
X105812D01*
X106199Y-87522D01*
X106527Y-87303D01*
X106746Y-86975D01*
X106823Y-86588D01*
Y-84412D01*
X106746Y-84025D01*
X106527Y-83697D01*
X106199Y-83478D01*
X105812Y-83401D01*
D02*
G37*
G36*
X21354Y-85075D02*
X18000D01*
Y-87937D01*
X21354D01*
Y-85075D01*
D02*
G37*
G36*
X17000D02*
X13646D01*
Y-87937D01*
X17000D01*
Y-85075D01*
D02*
G37*
G36*
X65354Y-85575D02*
X62000D01*
Y-88437D01*
X65354D01*
Y-85575D01*
D02*
G37*
G36*
X61000D02*
X57646D01*
Y-88437D01*
X61000D01*
Y-85575D01*
D02*
G37*
G36*
X130000Y-88079D02*
X129073Y-88263D01*
X128597Y-88581D01*
X128443Y-88478D01*
X128056Y-88401D01*
X121944D01*
X121557Y-88478D01*
X121229Y-88697D01*
X121010Y-89025D01*
X120932Y-89412D01*
Y-91588D01*
X121010Y-91975D01*
X121229Y-92303D01*
X121557Y-92522D01*
X121944Y-92599D01*
X128056D01*
X128443Y-92522D01*
X128597Y-92419D01*
X129073Y-92737D01*
X130000Y-92921D01*
X130927Y-92737D01*
X131712Y-92212D01*
X132237Y-91427D01*
X132421Y-90500D01*
X132237Y-89573D01*
X131712Y-88788D01*
X130927Y-88263D01*
X130000Y-88079D01*
D02*
G37*
G36*
X147500Y-87469D02*
Y-89500D01*
X149531D01*
X149509Y-89328D01*
X149249Y-88701D01*
X148836Y-88164D01*
X148299Y-87751D01*
X147672Y-87492D01*
X147500Y-87469D01*
D02*
G37*
G36*
X146500D02*
X146328Y-87492D01*
X145702Y-87751D01*
X145164Y-88164D01*
X144751Y-88701D01*
X144492Y-89328D01*
X144469Y-89500D01*
X146500D01*
Y-87469D01*
D02*
G37*
G36*
X209531Y-87500D02*
X207500D01*
Y-89531D01*
X207672Y-89508D01*
X208298Y-89249D01*
X208836Y-88836D01*
X209249Y-88298D01*
X209508Y-87672D01*
X209531Y-87500D01*
D02*
G37*
G36*
X206500D02*
X204469D01*
X204491Y-87672D01*
X204751Y-88298D01*
X205164Y-88836D01*
X205701Y-89249D01*
X206328Y-89508D01*
X206500Y-89531D01*
Y-87500D01*
D02*
G37*
G36*
X231854Y-87575D02*
X228500D01*
Y-90437D01*
X231854D01*
Y-87575D01*
D02*
G37*
G36*
X21354Y-88937D02*
X17500D01*
X13646D01*
Y-90999D01*
X13217Y-91256D01*
X12461Y-90852D01*
X11010Y-90411D01*
X9500Y-90263D01*
X7991Y-90411D01*
X6539Y-90852D01*
X5201Y-91567D01*
X4029Y-92529D01*
X3067Y-93701D01*
X2352Y-95039D01*
X1911Y-96491D01*
X1763Y-98000D01*
X1911Y-99510D01*
X2352Y-100961D01*
X3067Y-102299D01*
X4029Y-103471D01*
X5201Y-104433D01*
X6539Y-105148D01*
X7991Y-105589D01*
X9500Y-105737D01*
X11010Y-105589D01*
X12461Y-105148D01*
X13799Y-104433D01*
X14971Y-103471D01*
X15933Y-102299D01*
X16648Y-100961D01*
X17089Y-99510D01*
X17237Y-98000D01*
X17089Y-96491D01*
X16648Y-95039D01*
X15933Y-93701D01*
X14971Y-92529D01*
X14656Y-92270D01*
X14824Y-91799D01*
X16942D01*
X16992Y-92172D01*
X17251Y-92799D01*
X17664Y-93336D01*
X18202Y-93749D01*
X18828Y-94008D01*
X19000Y-94031D01*
Y-91500D01*
X19500D01*
Y-91000D01*
X22031D01*
X22008Y-90828D01*
X21749Y-90201D01*
X21354Y-89687D01*
Y-88937D01*
D02*
G37*
G36*
X149531Y-90500D02*
X147500D01*
Y-92531D01*
X147672Y-92509D01*
X148299Y-92249D01*
X148836Y-91836D01*
X149249Y-91299D01*
X149509Y-90672D01*
X149531Y-90500D01*
D02*
G37*
G36*
X146500D02*
X144469D01*
X144492Y-90672D01*
X144751Y-91299D01*
X145164Y-91836D01*
X145702Y-92249D01*
X146328Y-92509D01*
X146500Y-92531D01*
Y-90500D01*
D02*
G37*
G36*
X51000Y-90969D02*
Y-93000D01*
X53031D01*
X53009Y-92828D01*
X52749Y-92202D01*
X52336Y-91664D01*
X51798Y-91251D01*
X51172Y-90991D01*
X51000Y-90969D01*
D02*
G37*
G36*
X50000D02*
X49828Y-90991D01*
X49202Y-91251D01*
X48664Y-91664D01*
X48251Y-92202D01*
X47991Y-92828D01*
X47969Y-93000D01*
X50000D01*
Y-90969D01*
D02*
G37*
G36*
X22031Y-92000D02*
X20000D01*
Y-94031D01*
X20172Y-94008D01*
X20798Y-93749D01*
X21336Y-93336D01*
X21749Y-92799D01*
X22008Y-92172D01*
X22031Y-92000D01*
D02*
G37*
G36*
X231854Y-91437D02*
X228500D01*
Y-94299D01*
X231854D01*
Y-91437D01*
D02*
G37*
G36*
X65354Y-89437D02*
X61500D01*
X57646D01*
Y-92299D01*
X57942D01*
X57991Y-92672D01*
X58251Y-93299D01*
X58664Y-93836D01*
X59202Y-94249D01*
X59828Y-94508D01*
X60000Y-94531D01*
Y-92000D01*
X61000D01*
Y-94531D01*
X61172Y-94508D01*
X61799Y-94249D01*
X62336Y-93836D01*
X62749Y-93299D01*
X63008Y-92672D01*
X63058Y-92299D01*
X65354D01*
Y-89437D01*
D02*
G37*
G36*
X105812Y-93197D02*
X103256D01*
Y-95000D01*
X107027D01*
Y-94412D01*
X106935Y-93947D01*
X106671Y-93553D01*
X106277Y-93290D01*
X105812Y-93197D01*
D02*
G37*
G36*
X227500Y-87575D02*
X224146D01*
Y-90067D01*
X223702Y-90251D01*
X223164Y-90664D01*
X222751Y-91202D01*
X222492Y-91828D01*
X222469Y-92000D01*
X225000D01*
Y-92500D01*
X225500D01*
Y-95031D01*
X225672Y-95008D01*
X226298Y-94749D01*
X226836Y-94336D01*
X226865Y-94299D01*
X227500D01*
Y-90937D01*
Y-87575D01*
D02*
G37*
G36*
X224500Y-93000D02*
X222469D01*
X222492Y-93172D01*
X222751Y-93799D01*
X223164Y-94336D01*
X223702Y-94749D01*
X224328Y-95008D01*
X224500Y-95031D01*
Y-93000D01*
D02*
G37*
G36*
X53031Y-94000D02*
X51000D01*
Y-96031D01*
X51172Y-96008D01*
X51798Y-95749D01*
X52336Y-95336D01*
X52749Y-94798D01*
X53009Y-94172D01*
X53031Y-94000D01*
D02*
G37*
G36*
X50000D02*
X47969D01*
X47991Y-94172D01*
X48251Y-94798D01*
X48664Y-95336D01*
X49202Y-95749D01*
X49828Y-96008D01*
X50000Y-96031D01*
Y-94000D01*
D02*
G37*
G36*
X107027Y-96000D02*
X103256D01*
Y-97803D01*
X105812D01*
X106277Y-97710D01*
X106671Y-97447D01*
X106935Y-97053D01*
X107027Y-96588D01*
Y-96000D01*
D02*
G37*
G36*
X239500Y-94380D02*
Y-98000D01*
X243120D01*
X243043Y-97417D01*
X242625Y-96407D01*
X241960Y-95540D01*
X241093Y-94875D01*
X240083Y-94457D01*
X239500Y-94380D01*
D02*
G37*
G36*
X238500D02*
X237917Y-94457D01*
X236907Y-94875D01*
X236040Y-95540D01*
X235375Y-96407D01*
X234957Y-97417D01*
X234880Y-98000D01*
X238500D01*
Y-94380D01*
D02*
G37*
G36*
X135500Y-96469D02*
Y-98500D01*
X137531D01*
X137508Y-98328D01*
X137249Y-97702D01*
X136836Y-97164D01*
X136299Y-96751D01*
X135672Y-96491D01*
X135500Y-96469D01*
D02*
G37*
G36*
X134500D02*
X134328Y-96491D01*
X133702Y-96751D01*
X133164Y-97164D01*
X132751Y-97702D01*
X132492Y-98328D01*
X132469Y-98500D01*
X134500D01*
Y-96469D01*
D02*
G37*
G36*
X82500D02*
Y-98500D01*
X84531D01*
X84509Y-98328D01*
X84249Y-97702D01*
X83836Y-97164D01*
X83298Y-96751D01*
X82672Y-96491D01*
X82500Y-96469D01*
D02*
G37*
G36*
X81500D02*
X81328Y-96491D01*
X80702Y-96751D01*
X80164Y-97164D01*
X79751Y-97702D01*
X79492Y-98328D01*
X79469Y-98500D01*
X81500D01*
Y-96469D01*
D02*
G37*
G36*
X216500Y-98469D02*
Y-100500D01*
X218531D01*
X218509Y-100328D01*
X218249Y-99701D01*
X217836Y-99164D01*
X217299Y-98751D01*
X216672Y-98492D01*
X216500Y-98469D01*
D02*
G37*
G36*
X215500D02*
X215328Y-98492D01*
X214702Y-98751D01*
X214164Y-99164D01*
X213751Y-99701D01*
X213492Y-100328D01*
X213469Y-100500D01*
X215500D01*
Y-98469D01*
D02*
G37*
G36*
X84531Y-99500D02*
X82500D01*
Y-101531D01*
X82672Y-101508D01*
X83298Y-101249D01*
X83836Y-100836D01*
X84249Y-100299D01*
X84509Y-99672D01*
X84531Y-99500D01*
D02*
G37*
G36*
X81500D02*
X79469D01*
X79492Y-99672D01*
X79751Y-100299D01*
X80164Y-100836D01*
X80702Y-101249D01*
X81328Y-101508D01*
X81500Y-101531D01*
Y-99500D01*
D02*
G37*
G36*
X137531D02*
X135500D01*
Y-101531D01*
X135672Y-101508D01*
X136299Y-101249D01*
X136836Y-100836D01*
X137249Y-100299D01*
X137508Y-99672D01*
X137531Y-99500D01*
D02*
G37*
G36*
X134500D02*
X132469D01*
X132492Y-99672D01*
X132751Y-100299D01*
X133164Y-100836D01*
X133702Y-101249D01*
X134328Y-101508D01*
X134500Y-101531D01*
Y-99500D01*
D02*
G37*
G36*
X75500Y-99969D02*
Y-102000D01*
X77531D01*
X77508Y-101828D01*
X77249Y-101201D01*
X76836Y-100664D01*
X76298Y-100251D01*
X75672Y-99992D01*
X75500Y-99969D01*
D02*
G37*
G36*
X74500D02*
X74328Y-99992D01*
X73702Y-100251D01*
X73164Y-100664D01*
X72751Y-101201D01*
X72492Y-101828D01*
X72469Y-102000D01*
X74500D01*
Y-99969D01*
D02*
G37*
G36*
X128056Y-98401D02*
X121944D01*
X121557Y-98478D01*
X121229Y-98697D01*
X121010Y-99025D01*
X120932Y-99412D01*
Y-101588D01*
X121010Y-101975D01*
X121229Y-102303D01*
X121557Y-102522D01*
X121944Y-102599D01*
X128056D01*
X128443Y-102522D01*
X128771Y-102303D01*
X128990Y-101975D01*
X129068Y-101588D01*
Y-99412D01*
X128990Y-99025D01*
X128771Y-98697D01*
X128443Y-98478D01*
X128056Y-98401D01*
D02*
G37*
G36*
X243120Y-99000D02*
X239500D01*
Y-102620D01*
X240083Y-102543D01*
X241093Y-102125D01*
X241960Y-101460D01*
X242625Y-100593D01*
X243043Y-99583D01*
X243120Y-99000D01*
D02*
G37*
G36*
X238500D02*
X234880D01*
X234957Y-99583D01*
X235375Y-100593D01*
X236040Y-101460D01*
X236907Y-102125D01*
X237917Y-102543D01*
X238500Y-102620D01*
Y-99000D01*
D02*
G37*
G36*
X182500Y-101469D02*
Y-103500D01*
X184531D01*
X184509Y-103328D01*
X184249Y-102701D01*
X183836Y-102164D01*
X183299Y-101751D01*
X182672Y-101491D01*
X182500Y-101469D01*
D02*
G37*
G36*
X181500D02*
X181328Y-101491D01*
X180701Y-101751D01*
X180164Y-102164D01*
X179751Y-102701D01*
X179491Y-103328D01*
X179469Y-103500D01*
X181500D01*
Y-101469D01*
D02*
G37*
G36*
X218531Y-101500D02*
X216500D01*
Y-103531D01*
X216672Y-103508D01*
X217299Y-103249D01*
X217836Y-102836D01*
X218249Y-102298D01*
X218509Y-101672D01*
X218531Y-101500D01*
D02*
G37*
G36*
X215500D02*
X213469D01*
X213492Y-101672D01*
X213751Y-102298D01*
X214164Y-102836D01*
X214702Y-103249D01*
X215328Y-103508D01*
X215500Y-103531D01*
Y-101500D01*
D02*
G37*
G36*
X77531Y-103000D02*
X75500D01*
Y-105031D01*
X75672Y-105008D01*
X76298Y-104749D01*
X76836Y-104336D01*
X77249Y-103798D01*
X77508Y-103172D01*
X77531Y-103000D01*
D02*
G37*
G36*
X74500D02*
X72469D01*
X72492Y-103172D01*
X72751Y-103798D01*
X73164Y-104336D01*
X73702Y-104749D01*
X74328Y-105008D01*
X74500Y-105031D01*
Y-103000D01*
D02*
G37*
G36*
X184531Y-104500D02*
X182500D01*
Y-106531D01*
X182672Y-106509D01*
X183299Y-106249D01*
X183836Y-105836D01*
X184249Y-105298D01*
X184509Y-104672D01*
X184531Y-104500D01*
D02*
G37*
G36*
X181500D02*
X179469D01*
X179491Y-104672D01*
X179751Y-105298D01*
X180164Y-105836D01*
X180701Y-106249D01*
X181328Y-106509D01*
X181500Y-106531D01*
Y-104500D01*
D02*
G37*
%LPD*%
D16*
X0Y-107106D02*
Y0D01*
X248500D01*
Y-107106D02*
Y0D01*
X0Y-107106D02*
X248500D01*
D17*
X29378Y-69000D02*
D03*
Y-74000D02*
D03*
Y-79000D02*
D03*
Y-84000D02*
D03*
X51622Y-69000D02*
D03*
Y-74000D02*
D03*
Y-79000D02*
D03*
Y-84000D02*
D03*
X217878Y-53500D02*
D03*
Y-58500D02*
D03*
Y-63500D02*
D03*
Y-68500D02*
D03*
X240122Y-53500D02*
D03*
Y-58500D02*
D03*
Y-63500D02*
D03*
Y-68500D02*
D03*
X162378Y-48500D02*
D03*
Y-53500D02*
D03*
Y-58500D02*
D03*
Y-63500D02*
D03*
X184622Y-48500D02*
D03*
Y-53500D02*
D03*
Y-58500D02*
D03*
Y-63500D02*
D03*
X110244Y-64500D02*
D03*
Y-59500D02*
D03*
Y-54500D02*
D03*
Y-49500D02*
D03*
X88000Y-64500D02*
D03*
Y-59500D02*
D03*
Y-54500D02*
D03*
Y-49500D02*
D03*
X125000Y-100500D02*
D03*
Y-95500D02*
D03*
Y-90500D02*
D03*
Y-85500D02*
D03*
X102756Y-100500D02*
D03*
Y-95500D02*
D03*
Y-90500D02*
D03*
Y-85500D02*
D03*
X54122Y-32500D02*
D03*
Y-27500D02*
D03*
Y-22500D02*
D03*
Y-17500D02*
D03*
X31878Y-32500D02*
D03*
Y-27500D02*
D03*
Y-22500D02*
D03*
Y-17500D02*
D03*
D18*
X228000Y-83063D02*
D03*
Y-90937D02*
D03*
X140000Y-66563D02*
D03*
Y-74437D02*
D03*
X17500Y-88437D02*
D03*
Y-80563D02*
D03*
X89500Y-83000D02*
D03*
Y-75126D02*
D03*
X75500Y-58626D02*
D03*
Y-66500D02*
D03*
X61500Y-88937D02*
D03*
Y-81063D02*
D03*
D19*
X213000Y-73756D02*
D03*
Y-80055D02*
D03*
X160000Y-66201D02*
D03*
Y-72500D02*
D03*
D20*
X196063Y-58201D02*
D03*
X203937D02*
D03*
X189563Y-34500D02*
D03*
X197437D02*
D03*
X207126Y-41500D02*
D03*
X215000D02*
D03*
X149874Y-58000D02*
D03*
X142000D02*
D03*
X24063Y-53000D02*
D03*
X31937D02*
D03*
X23437Y-8500D02*
D03*
X15563D02*
D03*
X115437Y-75126D02*
D03*
X107563D02*
D03*
X73437Y-39000D02*
D03*
X65563D02*
D03*
D21*
X123500Y-64500D02*
D03*
X129000D02*
D03*
Y-75126D02*
D03*
X123500D02*
D03*
D22*
X121500Y-64500D02*
D03*
X131000D02*
D03*
Y-75126D02*
D03*
X121500D02*
D03*
D23*
X149500Y-65095D02*
D03*
Y-76906D02*
D03*
D24*
X151906Y-48000D02*
D03*
X140094D02*
D03*
X149094Y-9000D02*
D03*
X160906D02*
D03*
X97594Y-8500D02*
D03*
X109406D02*
D03*
D25*
X150000Y-15500D02*
D03*
X157874D02*
D03*
D26*
X75799Y-48000D02*
D03*
X63201D02*
D03*
D27*
X64000Y-57701D02*
D03*
Y-70299D02*
D03*
D28*
X64500Y-19937D02*
D03*
Y-12063D02*
D03*
D29*
X108150Y-14500D02*
D03*
X101850D02*
D03*
D48*
X150739Y-48000D02*
X151583Y-48843D01*
X154343D01*
X158421Y-52921D01*
X139500Y-55026D02*
X140320Y-55846D01*
X140338D02*
X142000Y-57508D01*
X139500Y-55026D02*
Y-49500D01*
X140320Y-55846D02*
X140338D01*
X142000Y-58000D02*
Y-57508D01*
X165079Y-65835D02*
X173000Y-73756D01*
X206126Y-78000D02*
X211587Y-72539D01*
X177244Y-78000D02*
X206126D01*
X173000Y-73756D02*
X177244Y-78000D01*
X164926Y-64746D02*
Y-64079D01*
X164347Y-63500D02*
X164926Y-64079D01*
Y-64746D02*
X165079Y-64900D01*
X211587Y-72539D02*
X215047Y-69080D01*
X165079Y-65835D02*
Y-64900D01*
X162378Y-63500D02*
X164347D01*
X215047Y-69080D02*
X217298D01*
X217878Y-68500D01*
X212881Y-73874D02*
X213000Y-73756D01*
X228492Y-83063D02*
X233563D01*
X228000D02*
X228492D01*
X233563D02*
X239000Y-88500D01*
X230154Y-81401D02*
Y-80909D01*
X228492Y-83063D02*
X230154Y-81401D01*
Y-80909D02*
X232000Y-79063D01*
X162378Y-58000D02*
X162878Y-58500D01*
X150374D02*
X162378D01*
X149874Y-58000D02*
X150374Y-58500D01*
X69800Y-25300D02*
X86800D01*
X95800Y-34300D01*
X203937Y-58201D02*
X205000Y-59264D01*
Y-68000D02*
Y-59264D01*
X195764Y-58500D02*
X196063Y-58201D01*
X195000Y-59264D02*
X195764Y-58500D01*
X195000Y-68000D02*
Y-59264D01*
X116849Y-73714D02*
Y-71151D01*
X119500Y-68500D02*
X127000D01*
X115437Y-75126D02*
X116849Y-73714D01*
Y-71151D02*
X119500Y-68500D01*
X131000Y-75126D02*
Y-64500D01*
X127947Y-65768D02*
X129732D01*
X131000Y-64500D01*
X127000Y-68500D02*
X127947Y-67553D01*
Y-65768D01*
X121500Y-77126D02*
X123500Y-75126D01*
X121500Y-80000D02*
Y-77126D01*
X117000Y-84500D02*
X121500Y-80000D01*
X117000Y-92000D02*
Y-84500D01*
Y-92000D02*
X120500Y-95500D01*
X125122D01*
X120252Y-63752D02*
X122752D01*
X116000Y-59500D02*
X120252Y-63752D01*
X122752D02*
X123500Y-64500D01*
X131000Y-75126D02*
X139311D01*
X140000Y-74437D01*
X161798Y-52921D02*
X162378Y-53500D01*
X158421Y-52921D02*
X161798D01*
X162378Y-53500D02*
X171000D01*
X94500Y-36500D02*
X187901D01*
X189563Y-34838D01*
Y-34500D01*
X150000Y-27000D02*
Y-15500D01*
Y-28000D02*
Y-27000D01*
X143700Y-34300D02*
X150000Y-28000D01*
X217579Y-58201D02*
X217878Y-58500D01*
X203937Y-58201D02*
X217579D01*
X229500Y-60000D02*
Y-54000D01*
X171000Y-53500D02*
X176000Y-58500D01*
X184622Y-53500D02*
X191000D01*
X203937Y-58201D02*
Y-44689D01*
X125122Y-90500D02*
X130000D01*
X204937Y-67937D02*
X205000Y-68000D01*
X232000Y-79063D02*
Y-63500D01*
X195000Y-68000D02*
X196764Y-66236D01*
X161000Y-67350D02*
Y-64878D01*
X149500Y-65095D02*
X149874Y-64720D01*
X161000Y-64878D02*
X162378Y-63500D01*
X140000Y-66563D02*
Y-60000D01*
X149874Y-64720D02*
Y-58000D01*
X140000Y-60000D02*
X142000Y-58000D01*
X197437Y-34500D02*
X204437Y-41500D01*
X203937Y-44689D02*
X207126Y-41500D01*
X204437D02*
X207126D01*
X215000D02*
X217000D01*
X229500Y-54000D01*
X232000Y-63500D02*
X240122D01*
X232000D02*
Y-62500D01*
X229500Y-60000D02*
X232000Y-62500D01*
X176000Y-58500D02*
X184622D01*
X195764D01*
X25500Y-84000D02*
X29378D01*
X75500Y-58626D02*
X76374Y-59500D01*
X88000D01*
X84000Y-65000D02*
X84250Y-64750D01*
X87750D02*
X88000Y-64500D01*
X84250Y-64750D02*
X87750D01*
X148000Y-15500D02*
X150000D01*
X147000Y-16500D02*
X148000Y-15500D01*
X139000Y-16500D02*
X147000D01*
X61500Y-81063D02*
X64000Y-78563D01*
Y-70299D01*
X54122Y-27500D02*
X85500D01*
X110244Y-54500D02*
X114500D01*
X115500Y-55500D01*
X51622Y-74000D02*
X56500D01*
X34437Y-55500D02*
X36500D01*
X31937Y-53000D02*
X34437Y-55500D01*
X17000Y-33500D02*
X18000D01*
X17000Y-43500D02*
X24063Y-50563D01*
Y-53000D02*
Y-50563D01*
X31878Y-52941D02*
X31937Y-53000D01*
X149094Y-6500D02*
X150000Y-7406D01*
Y-15500D02*
Y-7406D01*
X98000Y-100500D02*
X102878D01*
X97500Y-101000D02*
X98000Y-100500D01*
X85500Y-27500D02*
X94500Y-36500D01*
X89500Y-83000D02*
X96000D01*
X99000Y-80000D01*
X102689D01*
X107563Y-75126D01*
X93500Y-90500D02*
X102878D01*
X89500Y-86500D02*
X93500Y-90500D01*
X89500Y-86500D02*
Y-83000D01*
X101000Y-63626D02*
Y-59500D01*
X89500Y-75126D02*
X101000Y-63626D01*
X96000Y-54500D02*
Y-47500D01*
X87500Y-39000D02*
X96000Y-47500D01*
X73437Y-39000D02*
X87500D01*
X88000Y-54500D02*
X96000D01*
X101000Y-59500D01*
X110244D01*
X75500Y-58626D02*
X75799Y-58327D01*
Y-48000D01*
X63201Y-41362D02*
X65563Y-39000D01*
X63201Y-48000D02*
Y-41362D01*
Y-48000D02*
X64000Y-48799D01*
Y-57701D02*
Y-48799D01*
X59437Y-79000D02*
X61500Y-81063D01*
X51622Y-79000D02*
X59437D01*
X41500D02*
X51622D01*
X36500Y-74000D02*
X41500Y-79000D01*
X29378Y-74000D02*
X36500D01*
X19063Y-79000D02*
X29378D01*
X17500Y-80563D02*
X19063Y-79000D01*
X16937Y-80000D02*
X17500Y-80563D01*
X6000Y-80000D02*
X16937D01*
X110244Y-59500D02*
X116000D01*
X17000Y-23500D02*
Y-9937D01*
X15563Y-8500D02*
X17000Y-9937D01*
X23437Y-8500D02*
X27500D01*
X18000Y-33500D02*
X24000Y-27500D01*
X31878Y-22500D02*
X38500D01*
X43500Y-27500D01*
X54122D01*
X25500Y-32500D02*
X31878D01*
X24000Y-27500D02*
X31878D01*
X61937Y-22500D02*
X64500Y-19937D01*
X54122Y-22500D02*
X61937D01*
X64500Y-20000D02*
Y-19937D01*
Y-20000D02*
X69800Y-25300D01*
X95800Y-34300D02*
X143700D01*
X109406Y-12744D02*
Y-6000D01*
X108150Y-14000D02*
X109406Y-12744D01*
X108150Y-14000D02*
X116500D01*
X119000Y-16500D01*
X108150Y-17350D02*
Y-14000D01*
X106000Y-19500D02*
X108150Y-17350D01*
X83500Y-19500D02*
X106000D01*
X27500Y-8500D02*
X32000Y-4000D01*
X68000D01*
X83500Y-19500D01*
D49*
X239000Y-98500D02*
D03*
X195000Y-68000D02*
D03*
X6000Y-70000D02*
D03*
X17000Y-33500D02*
D03*
Y-43500D02*
D03*
X129000Y-16500D02*
D03*
X119000D02*
D03*
D50*
X239000Y-88500D02*
D03*
X6000Y-80000D02*
D03*
X17000Y-23500D02*
D03*
D51*
X205000Y-68000D02*
D03*
X139000Y-16500D02*
D03*
D52*
X9500Y-98000D02*
D03*
X236221Y-11811D02*
D03*
D53*
X173000Y-73756D02*
D03*
X214500Y-82000D02*
D03*
X135000Y-99000D02*
D03*
X150000Y-27000D02*
D03*
X118000Y-44000D02*
D03*
X130000Y-90500D02*
D03*
X149500Y-80000D02*
D03*
X165000Y-30000D02*
D03*
X160000Y-75000D02*
D03*
X147000Y-90000D02*
D03*
X182000Y-104000D02*
D03*
X216000Y-101000D02*
D03*
X207000Y-87000D02*
D03*
X225000Y-92500D02*
D03*
X198000Y-46000D02*
D03*
X180000Y-70500D02*
D03*
X214500Y-64000D02*
D03*
X244500Y-58500D02*
D03*
X191000Y-53500D02*
D03*
X173000Y-41500D02*
D03*
X239000Y-36500D02*
D03*
X178000Y-30000D02*
D03*
X99500Y-15500D02*
D03*
X94000Y-9000D02*
D03*
X164000Y-4500D02*
D03*
Y-13000D02*
D03*
X25500Y-84000D02*
D03*
X77500Y-69500D02*
D03*
X82000Y-74500D02*
D03*
X84000Y-65000D02*
D03*
X99500Y-95500D02*
D03*
X110500Y-41500D02*
D03*
X76000Y-85000D02*
D03*
X98500Y-73500D02*
D03*
X80500Y-33500D02*
D03*
X100500Y-27000D02*
D03*
X17000Y-64000D02*
D03*
X38500Y-42000D02*
D03*
X19500Y-91500D02*
D03*
X60500Y-92000D02*
D03*
X82000Y-99000D02*
D03*
X92500Y-24500D02*
D03*
X161000Y-17500D02*
D03*
X162378Y-22500D02*
D03*
X48000Y-50500D02*
D03*
X203500Y-24000D02*
D03*
X75000Y-102500D02*
D03*
X50500Y-93500D02*
D03*
X115500Y-55500D02*
D03*
X56500Y-74000D02*
D03*
X36500Y-55500D02*
D03*
X97500Y-101000D02*
D03*
X64500Y-9000D02*
D03*
X27500Y-8500D02*
D03*
X25500Y-32500D02*
D03*
M02*
