G04*
G04 #@! TF.GenerationSoftware,Altium Limited,Altium Designer,21.5.1 (32)*
G04*
G04 Layer_Color=8388736*
%FSLAX25Y25*%
%MOIN*%
G70*
G04*
G04 #@! TF.SameCoordinates,8A425D5F-BF34-4987-8E10-FF1777C96443*
G04*
G04*
G04 #@! TF.FilePolarity,Negative*
G04*
G01*
G75*
%ADD16C,0.01000*%
G04:AMPARAMS|DCode=30|XSize=33.59mil|YSize=72.96mil|CornerRadius=5.92mil|HoleSize=0mil|Usage=FLASHONLY|Rotation=90.000|XOffset=0mil|YOffset=0mil|HoleType=Round|Shape=RoundedRectangle|*
%AMROUNDEDRECTD30*
21,1,0.03359,0.06112,0,0,90.0*
21,1,0.02175,0.07296,0,0,90.0*
1,1,0.01184,0.03056,0.01088*
1,1,0.01184,0.03056,-0.01088*
1,1,0.01184,-0.03056,-0.01088*
1,1,0.01184,-0.03056,0.01088*
%
%ADD30ROUNDEDRECTD30*%
%ADD31R,0.06509X0.05524*%
%ADD32R,0.04737X0.04343*%
%ADD33R,0.05524X0.06509*%
%ADD34R,0.04737X0.04737*%
%ADD35C,0.04737*%
%ADD36R,0.07887X0.05328*%
%ADD37R,0.05328X0.07887*%
%ADD38R,0.05918X0.06902*%
%ADD39R,0.06115X0.08280*%
%ADD40R,0.08280X0.06115*%
%ADD41R,0.06902X0.05918*%
%ADD42R,0.04343X0.04737*%
%ADD43C,0.07099*%
%ADD44R,0.07099X0.07099*%
%ADD45R,0.07099X0.07099*%
%ADD46C,0.13800*%
%ADD47C,0.03950*%
D16*
X0Y-107106D02*
Y0D01*
X248500D01*
Y-107106D02*
Y0D01*
X0Y-107106D02*
X248500D01*
D30*
X29378Y-69000D02*
D03*
Y-74000D02*
D03*
Y-79000D02*
D03*
Y-84000D02*
D03*
X51622Y-69000D02*
D03*
Y-74000D02*
D03*
Y-79000D02*
D03*
Y-84000D02*
D03*
X217878Y-53500D02*
D03*
Y-58500D02*
D03*
Y-63500D02*
D03*
Y-68500D02*
D03*
X240122Y-53500D02*
D03*
Y-58500D02*
D03*
Y-63500D02*
D03*
Y-68500D02*
D03*
X162378Y-48500D02*
D03*
Y-53500D02*
D03*
Y-58500D02*
D03*
Y-63500D02*
D03*
X184622Y-48500D02*
D03*
Y-53500D02*
D03*
Y-58500D02*
D03*
Y-63500D02*
D03*
X110244Y-64500D02*
D03*
Y-59500D02*
D03*
Y-54500D02*
D03*
Y-49500D02*
D03*
X88000Y-64500D02*
D03*
Y-59500D02*
D03*
Y-54500D02*
D03*
Y-49500D02*
D03*
X125000Y-100500D02*
D03*
Y-95500D02*
D03*
Y-90500D02*
D03*
Y-85500D02*
D03*
X102756Y-100500D02*
D03*
Y-95500D02*
D03*
Y-90500D02*
D03*
Y-85500D02*
D03*
X54122Y-32500D02*
D03*
Y-27500D02*
D03*
Y-22500D02*
D03*
Y-17500D02*
D03*
X31878Y-32500D02*
D03*
Y-27500D02*
D03*
Y-22500D02*
D03*
Y-17500D02*
D03*
D31*
X228000Y-83063D02*
D03*
Y-90937D02*
D03*
X140000Y-66563D02*
D03*
Y-74437D02*
D03*
X17500Y-88437D02*
D03*
Y-80563D02*
D03*
X89500Y-83000D02*
D03*
Y-75126D02*
D03*
X75500Y-58626D02*
D03*
Y-66500D02*
D03*
X61500Y-88937D02*
D03*
Y-81063D02*
D03*
D32*
X213000Y-73756D02*
D03*
Y-80055D02*
D03*
X160000Y-66201D02*
D03*
Y-72500D02*
D03*
D33*
X196063Y-58201D02*
D03*
X203937D02*
D03*
X189563Y-34500D02*
D03*
X197437D02*
D03*
X207126Y-41500D02*
D03*
X215000D02*
D03*
X149874Y-58000D02*
D03*
X142000D02*
D03*
X24063Y-53000D02*
D03*
X31937D02*
D03*
X23437Y-8500D02*
D03*
X15563D02*
D03*
X115437Y-75126D02*
D03*
X107563D02*
D03*
X73437Y-39000D02*
D03*
X65563D02*
D03*
D34*
X123500Y-64500D02*
D03*
X129000D02*
D03*
Y-75126D02*
D03*
X123500D02*
D03*
D35*
X121500Y-64500D02*
D03*
X131000D02*
D03*
Y-75126D02*
D03*
X121500D02*
D03*
D36*
X149500Y-65095D02*
D03*
Y-76906D02*
D03*
D37*
X151906Y-48000D02*
D03*
X140094D02*
D03*
X149094Y-9000D02*
D03*
X160906D02*
D03*
X97594Y-8500D02*
D03*
X109406D02*
D03*
D38*
X150000Y-15500D02*
D03*
X157874D02*
D03*
D39*
X75799Y-48000D02*
D03*
X63201D02*
D03*
D40*
X64000Y-57701D02*
D03*
Y-70299D02*
D03*
D41*
X64500Y-19937D02*
D03*
Y-12063D02*
D03*
D42*
X108150Y-14500D02*
D03*
X101850D02*
D03*
D43*
X239000Y-98500D02*
D03*
X195000Y-68000D02*
D03*
X6000Y-70000D02*
D03*
X17000Y-33500D02*
D03*
Y-43500D02*
D03*
X129000Y-16500D02*
D03*
X119000D02*
D03*
D44*
X239000Y-88500D02*
D03*
X6000Y-80000D02*
D03*
X17000Y-23500D02*
D03*
D45*
X205000Y-68000D02*
D03*
X139000Y-16500D02*
D03*
D46*
X9500Y-98000D02*
D03*
X236221Y-11811D02*
D03*
D47*
X173000Y-73756D02*
D03*
X214500Y-82000D02*
D03*
X135000Y-99000D02*
D03*
X150000Y-27000D02*
D03*
X118000Y-44000D02*
D03*
X130000Y-90500D02*
D03*
X149500Y-80000D02*
D03*
X165000Y-30000D02*
D03*
X160000Y-75000D02*
D03*
X147000Y-90000D02*
D03*
X182000Y-104000D02*
D03*
X216000Y-101000D02*
D03*
X207000Y-87000D02*
D03*
X225000Y-92500D02*
D03*
X198000Y-46000D02*
D03*
X180000Y-70500D02*
D03*
X214500Y-64000D02*
D03*
X244500Y-58500D02*
D03*
X191000Y-53500D02*
D03*
X173000Y-41500D02*
D03*
X239000Y-36500D02*
D03*
X178000Y-30000D02*
D03*
X99500Y-15500D02*
D03*
X94000Y-9000D02*
D03*
X164000Y-4500D02*
D03*
Y-13000D02*
D03*
X25500Y-84000D02*
D03*
X77500Y-69500D02*
D03*
X82000Y-74500D02*
D03*
X84000Y-65000D02*
D03*
X99500Y-95500D02*
D03*
X110500Y-41500D02*
D03*
X76000Y-85000D02*
D03*
X98500Y-73500D02*
D03*
X80500Y-33500D02*
D03*
X100500Y-27000D02*
D03*
X17000Y-64000D02*
D03*
X38500Y-42000D02*
D03*
X19500Y-91500D02*
D03*
X60500Y-92000D02*
D03*
X82000Y-99000D02*
D03*
X92500Y-24500D02*
D03*
X161000Y-17500D02*
D03*
X162378Y-22500D02*
D03*
X48000Y-50500D02*
D03*
X203500Y-24000D02*
D03*
X75000Y-102500D02*
D03*
X50500Y-93500D02*
D03*
X115500Y-55500D02*
D03*
X56500Y-74000D02*
D03*
X36500Y-55500D02*
D03*
X97500Y-101000D02*
D03*
X64500Y-9000D02*
D03*
X27500Y-8500D02*
D03*
X25500Y-32500D02*
D03*
M02*
