M48
;Layer_Color=9474304
;FILE_FORMAT=2:5
INCH,LZ
;TYPE=PLATED
T1F00S00C0.01968
T2F00S00C0.04331
;TYPE=NON_PLATED
T3F00S00C0.13800
%
T01
X0082Y-0099
X00975Y-0101
X00995Y-00955
X013Y-00905
X0135Y-0099
X0147Y-009
X0182Y-0104
X0216Y-0101
X0225Y-00925
X0075Y-01025
X00605Y-0092
X00505Y-00935
X00195Y-00915
X00255Y-0084
X0017Y-0064
X00365Y-00555
X00385Y-0042
X0048Y-00505
X00565Y-0074
X00775Y-00695
X0076Y-0085
X00645Y-0009
X00275Y-00085
X00255Y-00325
X00805Y-00335
X00925Y-00245
X01005Y-0027
X00995Y-00155
X0094Y-0009
X01105Y-00415
X0118Y-0044
X01155Y-00555
X00985Y-00735
X0082Y-00745
X0084Y-0065
X01495Y-008
X016Y-0075
X0173Y-0073756
X018Y-00705
X0191Y-00535
X0198Y-0046
X02035Y-0024
X0178Y-003
X0165
X0162378Y-00225
X0161Y-00175
X0164Y-0013
Y-00045
X015Y-0027
X0173Y-00415
X02145Y-0064
Y-0082
X0207Y-0087
X02445Y-00585
X0239Y-00365
T02
X0239Y-00985
Y-00885
X0006Y-008
Y-007
X0017Y-00435
Y-00335
Y-00235
X0119Y-00165
X0129
X0139
X0195Y-0068
X0205
T03
X00095Y-0098
X0236221Y-0011811
M30
